<?xml version="1.0" encoding="utf-8"?>
<!-- Generator: Adobe Illustrator 26.1.0, SVG Export Plug-In . SVG Version: 6.00 Build 0)  -->
<svg version="1.1" id="Layer_1" xmlns="http://www.w3.org/2000/svg" xmlns:xlink="http://www.w3.org/1999/xlink" x="0px" y="0px"
	 viewBox="0 0 1600 840" style="enable-background:new 0 0 1600 840;" xml:space="preserve">
<style type="text/css">
	.st0{fill:#657285;}
	.st1{fill:#B8C1C9;}
	.st2{fill:#EAEAEA;}
	.st3{opacity:0.6;}
	.st4{fill:#D5D6DA;}
	.st5{fill:#FFFFFF;}
	.st6{opacity:0.5;}
	.st7{fill:#00A3FE;}
	.st8{fill:#016EB9;}
	.st9{fill:#131F2D;}
	.st10{fill:#5C305D;}
	.st11{opacity:0.4;}
	.st12{fill:#FF7955;}
	.st13{fill:#364154;}
	.st14{fill:#FFB27D;}
</style>
<g>
	<path class="st0" d="M1290.7,304c-34.5,45.7-92.4,72.8-153,72.8c-98.4,0-185.9-75.1-185.9-173.4c0-81.1,44.4-139.2,105.4-166
		c16.8-7.3,34.5-12.3,52.7-14.7c9.2-1.2,18.5-1.9,27.8-1.9c23.8,0,47.3,4.7,69.3,13.8c65.1,26.9,112.5,90.3,115.8,164.2
		C1324.6,239.7,1312.2,275.5,1290.7,304z"/>
	<path class="st1" d="M1035.2,214.4c0,0,7,16.1,0,24.9c-6.9,8.8-7.6,25.5,6.3,36.5c13.9,11,19.8,12,16.7,23
		c-3.2,11-6.4,24.5-1.3,30.2c5.2,5.7,7.3,19.1,18.9,20.1c11.6,1-0.9-9.2,6.6-18.7c7.6-9.5,36.9-11.3,34.1-30
		c-2.8-18.7,24.1-20.3,27.9-32.6c3.8-12.3-12.3-19.8-25.8-18.9c-13.5,0.9-5.2-20.1-19.9-23.2c-14.7-3.1-21.5-14.9-30.1-13.5
		c-8.5,1.4-18-10.6-27.7-6.9C1031.4,209.3,1035.2,214.4,1035.2,214.4z"/>
	<path class="st1" d="M1010.6,85.9c0,0-10.1,7.9-12.9,20.5c-2.8,12.6-17,20.5-19.2,37.9c-2.2,17.4,7.8,17.8,4.3,27.3
		c-3.5,9.5,0.9,14.2,11.7,18.9c10.8,4.7,11.8,12,18.1,14.4c6.4,2.4,4.7,8.8,6.9,9.5c2.1,0.7,1.2-4.8,3.4-12.1
		c2.2-7.2,4.1-10.2-3.9-9.9c-8,0.3-5.5-6.1-2.4-10.2c3.2-4.1-4.4-4.7-6.9-4.1c-2.5,0.6-1.9,12.3-7.1,6.8c-5.2-5.5-7.7-11.8-3.5-19.1
		c4.3-7.2,13.4-1.3,19.9-9.9c6.5-8.7,15.6-5.2,16.1,1.7c0.5,6.9,13.4,7.1,15.6-2c2.2-9.1,1.3-25.1,14.5-27.6
		c13.3-2.6,39.3-15.8,22.7-21.3c-16.6-5.4-9.9-16.8-18.5-16.1c-8.5,0.7-5.2,13.5-14.7,9.7c-9.5-3.8-16.3-13.9-3.1-16.8
		c13.3-2.8,18.7-17.5,8.5-16.5s-11.8-9-18-7.8c-6.2,1.2-12.5,16.1-18.9,19.8C1016.8,82.5,1010.6,85.9,1010.6,85.9z"/>
	<path class="st1" d="M1095.9,56.7c0,0,13.1-3.6,18.8,0c5.7,3.6,14.5,13.9,7.1,17.6c-7.4,3.8-15.2,5-11.5,12.1
		c3.6,7.1-10.4,9.5-14.4,0c-3.9-9.5-3.9-12.9-8-17.3C1083.7,64.7,1085.5,55.3,1095.9,56.7z"/>
	<path class="st1" d="M1290.7,304c-54.1-14.2-9.2-36.5-28.2-62.1c-10.8-14.6,8.4-32.2-3.9-34.6c-7.1-1.4-23.6,16.8-33,0
		c-9.5-16.8-26.4-16.9-31.3-6.7c-4.9,10.2-25.7,17.2-39.3,9.8c-13.6-7.4-5.7-17.2-17.5-25c-11.8-7.7-12.7-20,0-29.5
		c12.7-9.5,6.9-23.2,25.9-19c19,4.2,15.3-39.6,15.3-39.6c-0.3-7.7,7.1-9,2.9-16.1c-4.2-7.1-16.1-1.3-22.4-17.1
		c-6.3-15.8,10-25.3,23.2-23.8c3.8,0.5,13.2-2.2,24.8-5.8c65.2,26.9,112.6,90.3,115.8,164.2C1324.6,239.7,1312.2,275.5,1290.7,304z"
		/>
	<path class="st1" d="M1039,178.3c0,0,10.9-6.1,16.7-1.2c5.8,4.8,8.3,8.1,16.9,6.2c8.6-1.8,14.4,1.6,8.9,4.1
		c-5.5,2.5-18.5,6.9-24.5,1.7C1051.1,183.8,1033.9,180.4,1039,178.3z"/>
	<path class="st1" d="M1083,197.9c0,0,7.7,1.4,9.6-1.8c1.8-3.2-1.8-0.1-4.8-1.8C1084.8,192.6,1079.1,194.3,1083,197.9z"/>
	<path class="st2" d="M803.8,839.9c337,0,610.1-27.5,610.1-61.3c0-33.9-273.2-61.3-610.1-61.3c-337,0-610.1,27.5-610.1,61.3
		C193.7,812.5,466.9,839.9,803.8,839.9z"/>
	<g class="st3">
		<path class="st4" d="M1107.7,492.9c69.8-71.3,167.7-155.4,210.4-117.7c51.4,45.5-73.4,102.7-167.2,161.3
			C1117.3,557.6,1063.2,538.3,1107.7,492.9z"/>
	</g>
	<path class="st1" d="M1021.5,522.5c0,0,356.3-137.7,403.3-27.6c47,110.1-266.4,32.8-368.4,76.6L1021.5,522.5z"/>
	<path class="st5" d="M1040.7,550c69.9-31.5,156-41.5,216.1-44.3c65-3.1,114.1,1.4,114.6,1.5l0.3-3c-0.5,0-49.8-4.5-115-1.5
		c-60.3,2.8-146.9,12.9-217.2,44.6L1040.7,550z"/>
	<path class="st4" d="M1266.3,749.3c-44.7-20-81.2,43.1-117.2,0c-30.4-36.5-31-42.2-51.8-41c-7.1,0.5-14.1,1.9-20.8,4.4
		c-8,2.9-21.6,5.8-34.4-0.5c-77.9-38.6-97.2-209.7,16.1-213c8.2-0.2,16.9,3.8,26.2,8.6c50.6,26.3,49.5,57.5,124.6,30.3
		c75.1-27.2,67.3,85.2,99.8,104.8c32.4,19.7,66,30.3,66,79.9S1311,769.3,1266.3,749.3z"/>
	<g class="st6">
		<path class="st5" d="M1025.6,589.4l0.1-3.2c1.4,0.1,144.3,7.5,347.8,149.8l-1.9,2.6C1168.9,596.8,1026.9,589.4,1025.6,589.4z"/>
		<path class="st5" d="M1206.8,603.6c-8.9-43.1,0.3-65.3,0.7-66.3l2.9,1.3c-0.1,0.2-9.2,22.4-0.5,64.4L1206.8,603.6z"/>
		<path class="st5" d="M1190.8,634.9c2.2-18.5,16.7-36.8,42.1-52.9c11.9-7.5,24.6-13.8,37.7-18.9l1.1,3
			c-0.7,0.3-72.6,26.6-77.7,69.1L1190.8,634.9z"/>
		<path class="st5" d="M1246.8,669.1c-1.2-4.9-1.6-7.9-1.7-8.1l3.2-0.4c0.1,0.6,9.4,62.8,63.4,100l-1.8,2.6
			C1266.4,733.3,1251.3,687.5,1246.8,669.1z"/>
		<path class="st5" d="M1228.6,748.1c-2.2-22.3,4.3-38.2,10.1-47.7c6.3-10.3,13.1-15.2,13.3-15.4l1.9,2.6
			c-0.3,0.2-26.1,19.4-22.1,60.2L1228.6,748.1z"/>
	</g>
	<path class="st2" d="M422.1,30.8c0,0,11.3-21.7,39.8-19c28.5,2.7,25.1,24.5,38.7,22.4c13.6-2,32.6,0,36.7,13.6
		c4.1,13.6,22.4,6.1,23.1,17.7c0.7,11.5-21.1,19.7-46.2,9.5c-25.1-10.2-37.4,7.9-72.7,4.6c-35.3-3.3-39.7-7.4-60.6-5.3
		C360,76.3,360.5,62,370,52.5C379.5,43.1,418.1,43.9,422.1,30.8z"/>
	<g class="st3">
		<path class="st2" d="M565.2,102.1c0,0,5.9-11.3,20.7-9.9c14.9,1.4,13.1,12.7,20.2,11.7c7.1-1.1,16.9,0,19.1,7.1
			c2.2,7.1,11.7,3.2,12,9.2c0.4,6-11,10.2-24,4.9c-13.1-5.3-19.5,4.1-37.8,2.4c-18.4-1.7-20.7-3.8-31.5-2.8
			c-10.9,1.1-10.6-6.4-5.6-11.3C543.1,108.5,563.1,109,565.2,102.1z"/>
	</g>
	<path class="st4" d="M393.3,174.9c-6.5,7.6-10.9,7.8-13.9,5.2c-3-2.6-3.5-6.9,3.1-14.5c11.9-13.9,23.1-15.9,23.1-15.9
		S405.3,160.8,393.3,174.9z"/>
	<path class="st4" d="M414,236.5c-3.7,9.3-7.8,10.9-11.4,9.5c-3.7-1.4-5.5-5.4-1.8-14.7c6.8-17,16.6-22.5,16.6-22.5
		S420.9,219.3,414,236.5z"/>
	<path class="st4" d="M465.3,397.6l-1.8,0.5c-0.1-0.3-7.4-28.8-30.7-66.2c-21.6-34.5-61.6-83.9-129.8-123.2l1-1.6
		c68.6,39.5,108.8,89.1,130.5,123.9C457.9,368.6,465.3,397.3,465.3,397.6z"/>
	<path class="st4" d="M376.5,261.2l-1.8-0.4c16.3-67-27.9-126.3-28.4-126.9l1.5-1.1C348.3,133.3,393,193.4,376.5,261.2z"/>
	<path class="st4" d="M339.4,241.5c-11.4,3.8-23.6,4.4-35.4,1.8l0.5-1.8c0.2,0.1,21.9,5.6,42.3-5.3l0.9,1.7
		C345.1,239.3,342.3,240.5,339.4,241.5L339.4,241.5z"/>
	<path class="st4" d="M448.4,358.2c-38.3,8.5-74.4,0.8-107.3-22.8c-0.8-0.6-1.6-1.2-2.5-1.7c0.1,0,0.1,0,0.2,0v-1.9
		c0.6,0,1,0.3,3.4,2c32.4,23.4,68,30.9,105.8,22.5L448.4,358.2z"/>
	<path class="st4" d="M389.6,356.9l-1.9,0.1c-1.7-25.7-29.3-54.9-29.6-55.1l1.4-1.3c5.2,5.7,10,11.7,14.4,18.1
		C380.5,328.4,388.7,343.1,389.6,356.9z"/>
	<path class="st4" d="M298.4,199.1c12.4,5.3,14.9,9.8,13.4,13.4c-1.5,3.6-6.4,5-18.9-0.3c-22.7-9.7-30.9-20.8-30.9-20.8
		S275.4,189.3,298.4,199.1z"/>
	<path class="st4" d="M306.9,235.8c13.5,1.3,17.2,4.8,16.8,8.8c-0.4,3.9-4.7,6.7-18.2,5.4c-24.5-2.4-35.7-10.6-35.7-10.6
		S282,233.4,306.9,235.8z"/>
	<path class="st4" d="M361.4,294.2c7.3,6.9,7.2,11.3,4.5,14.1c-2.7,2.9-7.1,3.1-14.3-3.9c-13.2-12.6-14.7-23.9-14.7-23.9
		S348,281.4,361.4,294.2z"/>
	<path class="st4" d="M348,206.5c5.3,8.5,4.2,12.7,0.9,14.8c-3.3,2.1-7.6,1.3-13-7.2c-9.7-15.5-8.4-26.7-8.4-26.7
		S338.1,190.8,348,206.5z"/>
	<path class="st4" d="M410.1,339.2c2.8,9.7,0.5,13.4-3.3,14.5c-3.8,1.1-7.7-0.9-10.4-10.6c-5-17.6-0.6-28-0.6-28
		S405,321.4,410.1,339.2z"/>
	<path class="st4" d="M348.7,331c8.6,5.2,9.5,9.5,7.4,12.8c-2,3.4-6.3,4.5-14.8-0.7c-15.6-9.5-19.5-20.1-19.5-20.1
		S332.9,321.4,348.7,331z"/>
	<path class="st4" d="M349.1,124.2c7.3,11.4,6.7,16.5,3.4,18.6c-3.3,2.1-8.2,0.4-15.4-11c-13.2-20.8-13.6-34.6-13.6-34.6
		S335.7,103.1,349.1,124.2z"/>
	<path class="st4" d="M611.3,645.5c0,0-193.4-318.3-277.9-262.7c-84.5,55.7,176.9,184.6,230.2,279.1L611.3,645.5z"/>
	<path class="st2" d="M521.3,588.7c0,0-222.6-235.8-298.9-168.7C146,487.1,414.6,542.6,476.6,613.4L521.3,588.7z"/>
	<path class="st5" d="M496.4,602.8c-42-49.7-104.4-88.9-149.4-113c-48.7-26.1-88-40.7-88.4-40.8l0.9-2.4c0.4,0.1,39.8,14.7,88.7,41
		c45.2,24.2,107.8,63.6,150.1,113.5L496.4,602.8z"/>
	<path class="st1" d="M255.3,680.2c50.1,9.7,43.4,85.3,99.9,70.1c56.5-15.2,51.7-18.8,79.6,5.3c0,0,11.2,23.6,33.9,27.1
		c89.5,13.7,208.6-120.6,114.1-191.2c-6.8-5.1-16.7-6.9-27.5-8.4c-58.9-7.9-76.6,19.4-124.4-48.7c-47.7-68.1-108.4,32.3-147.9,29.6
		c-39.4-2.7-74.4-13.7-104.2,28.6C149,635,205.2,670.5,255.3,680.2z"/>
	<path class="st5" d="M556.3,688l1.8-2.8c-1.2-0.8-127.5-80-386.2-80.5v3.4C429.7,608.6,555.1,687.2,556.3,688z"/>
	<path class="st5" d="M393.3,591.7c33.4-31.4,38.9-55.9,39.2-56.9l-3.3-0.7c0,0.2-5.6,24.6-38.2,55.1L393.3,591.7z"/>
	<path class="st5" d="M388.2,628c9.2-17.1,7.8-41.4-4.1-70.2c-5.7-13.5-12.6-26.5-20.8-38.7l-2.7,1.9c0.5,0.7,46,66.1,24.7,105.4
		L388.2,628z"/>
	<path class="st5" d="M320,623.6c4-3.5,6.1-5.7,6.2-5.8l-2.4-2.3c-0.5,0.5-45.7,47.9-114,47.2v3.4
		C264.8,666.5,305.2,636.6,320,623.6z"/>
	<path class="st5" d="M288.1,701.8c15.2-17.7,19.3-35.1,20-46.7c0.8-12.5-2-20.8-2.1-21.1l-3.2,1.1c0.1,0.3,10.6,32.1-17.3,64.5
		L288.1,701.8z"/>
	<path class="st7" d="M924.9,688.6V585.7H717.1v102.9c0,26.7-17.8,48.4-39.8,48.4h-8.4v13.3h304.2V737h-8.4
		C942.8,737,924.9,715.3,924.9,688.6z"/>
	<path class="st8" d="M971.4,750.3H670.6c-1.8,0-3.5-0.7-4.7-1.9c-1.2-1.2-2-2.9-2-4.7l0,0c0-1.8,0.7-3.5,2-4.7
		c1.2-1.2,2.9-1.9,4.7-1.9h300.8c1.8,0,3.5,0.7,4.7,1.9c1.3,1.2,1.9,2.9,1.9,4.7l0,0c0,1.8-0.7,3.5-1.9,4.7
		C974.9,749.6,973.2,750.3,971.4,750.3L971.4,750.3z"/>
	<path class="st8" d="M1175,648.8l-702.8-8.1c-7.2-0.1-14.1-3-19.2-8.2c-5.1-5.1-7.9-12.1-7.9-19.3V184.9c0-7.2,2.8-14.1,7.9-19.2
		c5.1-5.1,11.9-8.1,19.2-8.2l693.7-10.6c7.3-0.1,14.3,2.7,19.5,7.7c5.2,5,8.2,11.9,8.4,19.2l9.1,447.1c0.1,3.7-0.6,7.3-1.9,10.7
		c-1.4,3.4-3.4,6.5-6,9.1c-2.6,2.6-5.7,4.7-9.1,6.1C1182.4,648.2,1178.7,648.9,1175,648.8L1175,648.8z"/>
	<path class="st2" d="M1151.3,190H487.1c-8.1,0-14.7,6.6-14.7,14.7v344.4c0,8.1,6.6,14.7,14.7,14.7h664.2c8.1,0,14.7-6.6,14.7-14.7
		V204.7C1166,196.6,1159.4,190,1151.3,190z"/>
	<path class="st7" d="M891.6,73.1l8.7-0.2c0.8,0,1.6-0.2,2.3-0.5c0.7-0.3,1.4-0.8,1.9-1.4c0.5-0.6,1-1.3,1.3-2
		c0.3-0.7,0.4-1.5,0.4-2.3l-0.3-10.6c0-1.6-0.7-3.1-1.9-4.2c-1.2-1.1-2.7-1.7-4.3-1.7l-6.2,0.2c-1.3,0-2.6-0.4-3.6-1.1
		c-1.1-0.7-1.9-1.8-2.3-3c-0.2-0.5-0.3-1-0.5-1.4c-0.4-1.1-0.5-2.4-0.2-3.6c0.3-1.2,1-2.2,1.9-3l4.2-3.7c1.2-1.1,1.9-2.5,2.1-4.2
		c0.1-1.6-0.4-3.2-1.5-4.4l-7-8c-0.5-0.6-1.2-1.1-1.9-1.4c-0.7-0.4-1.5-0.6-2.3-0.6c-0.8-0.1-1.6,0.1-2.3,0.3
		c-0.7,0.3-1.4,0.7-2,1.2l-4.2,3.7c-0.9,0.8-2,1.3-3.2,1.5c-1.2,0.1-2.4-0.1-3.5-0.6c-0.4-0.2-0.9-0.5-1.4-0.7
		c-1.2-0.6-2.1-1.5-2.7-2.6c-0.6-1.2-0.8-2.5-0.6-3.7l1-6.1c0.3-1.6-0.1-3.2-1.1-4.5c-1-1.3-2.4-2.2-3.9-2.4l-10.5-1.7
		c-1.6-0.3-3.2,0.1-4.5,1.1c-1.3,0.9-2.2,2.4-2.4,3.9l-1.4,8.6c-0.2,1.1-0.7,2.2-1.5,3c-0.8,0.9-1.8,1.5-2.9,1.8
		c-1.9,0.5-3.8,1.2-5.6,2.1c-1.2,0.5-2.5,0.7-3.8,0.4c-1.3-0.3-2.4-0.9-3.3-1.9L818,14c-0.5-0.6-1.2-1.1-1.9-1.4
		c-0.7-0.4-1.5-0.6-2.3-0.6c-0.8-0.1-1.6,0.1-2.3,0.3c-0.7,0.3-1.4,0.7-2,1.2l-8,7c-1.2,1.1-1.9,2.5-2,4.1c-0.1,1.6,0.4,3.2,1.5,4.4
		l6.1,7c0.8,0.9,1.3,1.9,1.5,3.1c0.2,1.1,0,2.3-0.4,3.4c-0.2,0.5-0.4,1-0.6,1.6c-0.4,1.1-1.2,2-2.2,2.7c-1,0.7-2.1,1-3.3,1.1
		l-9.9,0.3c-1.6,0-3.1,0.7-4.2,1.9c-1.1,1.2-1.7,2.7-1.6,4.3l0.3,10.6c0,1.6,0.7,3.1,1.9,4.2c1.2,1.1,2.7,1.7,4.3,1.7l8.5-0.2
		c1.3,0,2.5,0.3,3.6,1c1,0.7,1.8,1.7,2.3,2.9v0.1c0.4,1.1,0.5,2.4,0.2,3.6c-0.3,1.2-1,2.2-1.9,3l-6,5.2c-0.6,0.5-1.1,1.2-1.4,1.9
		c-0.4,0.7-0.6,1.5-0.6,2.3c0,0.8,0,1.6,0.3,2.3c0.3,0.8,0.7,1.4,1.2,2l7,8c0.5,0.6,1.2,1.1,1.9,1.4c0.7,0.4,1.5,0.6,2.3,0.6
		c0.8,0.1,1.6-0.1,2.3-0.3c0.8-0.3,1.5-0.7,2.1-1.2l6-5.2c0.9-0.8,2-1.3,3.3-1.5c1.2-0.1,2.4,0.1,3.5,0.7l0.1,0
		c1.1,0.6,2,1.5,2.6,2.6c0.6,1.1,0.8,2.4,0.6,3.7l-1.3,8.4c-0.1,0.8-0.1,1.6,0.1,2.4c0.2,0.8,0.5,1.5,1,2.1c0.5,0.6,1.1,1.2,1.7,1.6
		c0.7,0.4,1.4,0.7,2.2,0.8l10.5,1.7c1.6,0.3,3.2-0.1,4.5-1.1c1.3-0.9,2.2-2.4,2.4-3.9l1.6-9.7c0.2-1.2,0.7-2.2,1.5-3.1
		c0.8-0.9,1.8-1.5,3-1.8c0.5-0.1,1.1-0.3,1.6-0.4c1.1-0.3,2.3-0.3,3.4,0c1.1,0.3,2.1,1,2.9,1.8l6.1,7c0.5,0.6,1.2,1.1,1.9,1.4
		c0.7,0.4,1.5,0.6,2.3,0.6c0.8,0.1,1.6-0.1,2.3-0.3c0.7-0.3,1.4-0.7,2-1.2l8-7c0.6-0.5,1.1-1.2,1.4-1.9c0.4-0.7,0.6-1.5,0.6-2.3
		c0-0.8,0-1.6-0.3-2.3c-0.3-0.8-0.6-1.4-1.2-2l-4.5-5.2c-0.9-1-1.4-2.2-1.5-3.5c-0.1-1.3,0.2-2.6,0.9-3.7c1-1.7,2-3.5,2.8-5.3
		c0.5-1.1,1.2-2,2.2-2.6C889.3,73.5,890.4,73.2,891.6,73.1L891.6,73.1z M862.8,78.1c-9.3,8.1-28.3,5.8-36.4-3.5
		c-8.1-9.3-4.9-25,4.4-33c9.3-8.1,25.1-3.8,33.3,5.5C872.1,56.4,872.1,70,862.8,78.1L862.8,78.1z"/>
	<path class="st9" d="M846.4,127.4c-0.3,0-0.7,0-1-0.1l-10.5-1.7c-0.8-0.1-1.6-0.4-2.3-0.8c-0.7-0.4-1.3-1-1.8-1.7
		c-0.5-0.7-0.8-1.4-1-2.2c-0.2-0.8-0.2-1.6-0.1-2.4l1.3-8.3c0.2-1.2,0-2.5-0.5-3.6c-0.6-1.1-1.4-2-2.5-2.6H828
		c-1-0.5-2.2-0.8-3.4-0.6c-1.2,0.1-2.3,0.6-3.2,1.4l-6,5.2c-0.6,0.5-1.3,1-2.1,1.2c-0.8,0.3-1.6,0.4-2.4,0.3
		c-0.8-0.1-1.6-0.3-2.3-0.6c-0.7-0.4-1.4-0.9-1.9-1.5l-7-8c-0.6-0.6-1-1.3-1.2-2.1c-0.3-0.8-0.4-1.6-0.3-2.4
		c0.1-0.8,0.3-1.6,0.6-2.3c0.3-0.7,0.9-1.4,1.5-1.9l6-5.2c0.9-0.8,1.5-1.8,1.8-3c0.3-1.2,0.2-2.4-0.2-3.5V81
		c-0.4-1.2-1.2-2.1-2.2-2.8c-1-0.7-2.2-1-3.5-1l-8.5,0.2c-1.6,0-3.2-0.6-4.5-1.7c-1.2-1.1-1.9-2.7-1.9-4.4L787,60.7
		c0-1.6,0.6-3.2,1.7-4.4c1.1-1.2,2.7-1.9,4.4-1.9l9.9-0.3c1.1,0,2.2-0.4,3.2-1c1-0.6,1.7-1.6,2.1-2.6c0.2-0.5,0.4-1.1,0.6-1.6
		c0.4-1,0.6-2.2,0.4-3.3c-0.2-1.1-0.6-2.1-1.4-3l-6.1-7c-1.1-1.2-1.6-2.9-1.5-4.5c0.1-1.6,0.9-3.2,2.1-4.3l8-7
		c0.6-0.5,1.3-1,2.1-1.2c0.8-0.3,1.6-0.4,2.4-0.3c0.8,0.1,1.6,0.3,2.3,0.6c0.7,0.4,1.4,0.9,1.9,1.5l4.5,5.2c0.8,1,2,1.6,3.2,1.9
		c1.3,0.3,2.5,0.1,3.7-0.4c1.8-0.8,3.7-1.5,5.6-2.1c1.1-0.3,2-0.9,2.8-1.7c0.8-0.8,1.3-1.9,1.4-3l1.4-8.6c0.3-1.6,1.2-3.1,2.5-4.1
		c1.3-1,3-1.4,4.6-1.1l10.5,1.7c1.6,0.3,3.1,1.2,4.1,2.5c1,1.3,1.4,3,1.1,4.6l-1,6.1c-0.2,1.2,0,2.5,0.6,3.6c0.6,1.1,1.5,2,2.6,2.6
		c0.5,0.2,0.9,0.5,1.4,0.7c1,0.5,2.2,0.8,3.4,0.6c1.2-0.1,2.3-0.6,3.2-1.4l4.2-3.7c1.3-1.1,2.9-1.6,4.5-1.5c1.6,0.1,3.2,0.9,4.3,2.1
		l7,8c0.5,0.6,1,1.3,1.2,2.1c0.3,0.8,0.4,1.6,0.3,2.4c0,0.8-0.3,1.6-0.6,2.3c-0.4,0.7-0.9,1.4-1.5,1.9l-4.2,3.7
		c-0.9,0.8-1.5,1.8-1.8,2.9c-0.3,1.1-0.2,2.3,0.2,3.5c0.2,0.5,0.3,1,0.5,1.4c0.4,1.2,1.2,2.2,2.2,3c1,0.7,2.3,1.1,3.5,1.1l6.2-0.2
		c1.6,0,3.2,0.6,4.5,1.7c1.2,1.1,1.9,2.7,1.9,4.3l0.3,10.6c0,1.6-0.6,3.2-1.7,4.4c-1.1,1.2-2.7,1.9-4.3,1.9l-8.7,0.2
		c-1.1,0-2.2,0.4-3.1,1c-0.9,0.6-1.7,1.5-2.1,2.5c-0.8,1.8-1.7,3.6-2.8,5.3c-0.7,1.1-1,2.3-0.9,3.6c0.1,1.3,0.6,2.5,1.4,3.4l4.5,5.2
		c0.5,0.6,1,1.3,1.2,2.1c0.3,0.8,0.4,1.6,0.3,2.4c-0.1,0.8-0.3,1.6-0.6,2.3c-0.4,0.7-0.9,1.4-1.5,1.9l-8,7c-0.6,0.5-1.3,1-2.1,1.2
		c-0.8,0.3-1.6,0.4-2.4,0.3c-0.8-0.1-1.6-0.3-2.3-0.6c-0.7-0.4-1.4-0.9-1.9-1.5l-6.1-7c-0.7-0.8-1.7-1.5-2.8-1.8
		c-1.1-0.3-2.2-0.3-3.3,0c-0.5,0.2-1.1,0.3-1.6,0.5c-1.1,0.3-2.1,0.9-2.9,1.7c-0.8,0.8-1.3,1.9-1.5,3l-1.6,9.7
		c-0.3,1.5-1,2.8-2.1,3.7C849.3,126.9,847.9,127.4,846.4,127.4L846.4,127.4z M825.2,102.9c1,0,2,0.2,2.9,0.7l0.1,0
		c1.1,0.6,2.1,1.6,2.6,2.7c0.6,1.2,0.8,2.5,0.6,3.8l-1.3,8.4c-0.3,1.5,0.1,3.1,1,4.4c0.9,1.3,2.3,2.1,3.8,2.4l10.5,1.7
		c1.5,0.2,3.1-0.1,4.4-1c1.3-0.9,2.1-2.3,2.4-3.8l1.6-9.7c0.2-1.2,0.7-2.3,1.5-3.2c0.8-0.9,1.9-1.5,3.1-1.8c0.5-0.1,1.1-0.3,1.6-0.4
		c1.1-0.3,2.4-0.3,3.5,0c1.1,0.3,2.2,1,2.9,1.9l6.1,7c0.5,0.6,1.1,1.1,1.8,1.4c0.7,0.3,1.4,0.5,2.2,0.6c0.8,0.1,1.6,0,2.3-0.3
		c0.7-0.2,1.4-0.6,2-1.1l8-7c1.2-1,1.9-2.5,2-4c0.1-1.6-0.4-3.1-1.4-4.3l-4.5-5.2c-0.9-1-1.4-2.3-1.5-3.6c-0.1-1.3,0.2-2.7,1-3.8
		c1-1.7,2-3.4,2.8-5.3c0.5-1.1,1.3-2,2.2-2.7c1-0.7,2.2-1,3.3-1.1l8.7-0.2c1.6,0,3-0.7,4.1-1.8c1.1-1.1,1.6-2.6,1.6-4.2l-0.3-10.6
		c0-1.6-0.7-3-1.8-4.1c-1.1-1.1-2.6-1.7-4.2-1.6l-6.2,0.2c-1.3,0-2.6-0.4-3.8-1.1c-1.1-0.8-1.9-1.9-2.3-3.1c-0.2-0.5-0.3-1-0.5-1.4
		c-0.4-1.2-0.5-2.5-0.2-3.7c0.3-1.2,1-2.3,1.9-3.1l4.2-3.7c0.6-0.5,1.1-1.1,1.4-1.8c0.3-0.7,0.6-1.4,0.6-2.2c0-0.8,0-1.5-0.3-2.3
		c-0.2-0.7-0.6-1.4-1.1-2l-7-8c-1-1.2-2.5-1.9-4-2c-1.6-0.1-3.1,0.4-4.2,1.4l-4.2,3.7c-1,0.8-2.1,1.3-3.4,1.5
		c-1.2,0.2-2.5-0.1-3.6-0.7c-0.4-0.2-0.9-0.5-1.3-0.7c-1.2-0.6-2.2-1.5-2.8-2.7c-0.6-1.2-0.8-2.5-0.6-3.9l1-6.1
		c0.2-1.5-0.1-3.1-1-4.4c-0.9-1.3-2.3-2.1-3.8-2.4l-10.5-1.7c-1.5-0.2-3.1,0.1-4.4,1c-1.3,0.9-2.1,2.3-2.4,3.8l-1.4,8.6
		c-0.2,1.2-0.7,2.3-1.5,3.1c-0.8,0.9-1.8,1.5-3,1.9c-1.9,0.5-3.8,1.2-5.6,2c-1.2,0.6-2.6,0.7-3.9,0.4c-1.3-0.3-2.5-1-3.4-2l-4.5-5.2
		c-0.5-0.6-1.1-1.1-1.8-1.4c-0.7-0.3-1.4-0.5-2.2-0.6c-0.8-0.1-1.5,0.1-2.2,0.3c-0.7,0.2-1.4,0.6-2,1.1l-8,7c-1.2,1-1.9,2.5-2,4
		c-0.1,1.5,0.4,3.1,1.4,4.3l6.1,7c0.8,0.9,1.3,2,1.5,3.2c0.2,1.2,0,2.4-0.4,3.5c-0.2,0.5-0.4,1-0.6,1.6c-0.4,1.1-1.2,2.1-2.2,2.8
		c-1,0.7-2.2,1.1-3.4,1.1l-9.9,0.3c-0.8,0-1.5,0.2-2.2,0.5c-0.7,0.3-1.3,0.8-1.9,1.3c-0.5,0.6-0.9,1.2-1.2,1.9
		c-0.3,0.7-0.4,1.5-0.4,2.3l0.3,10.6c0,1.6,0.7,3,1.8,4.1c1.1,1.1,2.6,1.7,4.2,1.6l8.5-0.2c1.3,0,2.6,0.3,3.7,1.1
		c1.1,0.7,1.9,1.8,2.3,3v0.1c0.4,1.2,0.5,2.5,0.2,3.7c-0.3,1.2-1,2.3-1.9,3.1l-6,5.2c-0.6,0.5-1,1.1-1.4,1.8
		c-0.3,0.7-0.5,1.4-0.6,2.2c-0.1,0.8,0,1.5,0.3,2.3c0.3,0.7,0.6,1.4,1.2,2l7,8c0.5,0.6,1.1,1.1,1.8,1.4c0.7,0.3,1.5,0.5,2.2,0.6
		c0.8,0.1,1.5-0.1,2.3-0.3c0.7-0.2,1.4-0.6,2-1.1l6-5.2C822.2,103.5,823.7,102.9,825.2,102.9L825.2,102.9z"/>
	<g class="st3">
		<path class="st4" d="M1101.9,234.3H535.7c-8.1,0-14.7,6.6-14.7,14.6v96.2c0,8.1,6.6,14.6,14.7,14.6h566.2
			c8.1,0,14.7-6.6,14.7-14.6V249C1116.5,240.9,1110,234.3,1101.9,234.3z"/>
	</g>
	<g class="st3">
		<path class="st4" d="M1107.6,398.1H834.2c-0.6,0-1.1-0.1-1.6-0.3c-0.5-0.2-1-0.5-1.4-0.9c-0.4-0.4-0.7-0.9-0.9-1.4
			c-0.2-0.5-0.3-1.1-0.3-1.6v-2.5c0-0.6,0.1-1.1,0.3-1.6c0.2-0.5,0.5-1,0.9-1.4c0.4-0.4,0.9-0.7,1.4-0.9c0.5-0.2,1.1-0.3,1.6-0.3
			l273.4,2.5c1.1,0,2.2,0.5,3,1.3c0.8,0.8,1.2,1.9,1.2,3l0,0c0,1.1-0.4,2.2-1.3,3C1109.8,397.6,1108.8,398.1,1107.6,398.1
			L1107.6,398.1z"/>
	</g>
	<path class="st0" d="M1087.2,292.1H903.7v-6.9l183.5,1.6V292.1z"/>
	<path class="st7" d="M985.6,307.8h-81.9v-6.9l81.9,1.6V307.8z"/>
	<path class="st7" d="M1012.2,341.6H903.7v-7l108.5,1.6V341.6z"/>
	<path class="st10" d="M985.6,325.9h-81.9v-7l81.9,1.6V325.9z"/>
	<path class="st0" d="M1045.4,325.9h-48v-7l48,1.6V325.9z"/>
	<path class="st7" d="M1079.3,307.8h-81.9v-6.9l81.9,1.6V307.8z"/>
	<g class="st3">
		<path class="st4" d="M1108,422.4l-274.1,3.2c-0.5,0-1-0.1-1.5-0.3c-0.5-0.2-0.9-0.5-1.3-0.8c-0.4-0.4-0.7-0.8-0.9-1.3
			c-0.2-0.5-0.3-1-0.3-1.5v-3.2c0-1,0.4-2,1.1-2.7c0.7-0.7,1.7-1.1,2.7-1.1H1108c1,0,2,0.4,2.7,1.1c0.7,0.7,1.1,1.7,1.1,2.7l0,0
			c0,1-0.4,2-1.1,2.7C1110,422,1109.1,422.4,1108,422.4L1108,422.4z"/>
	</g>
	<g class="st3">
		<path class="st4" d="M673.1,507.5h-150v-8.9l147.6,2c1.2,0,2.4,0.5,3.3,1.4c0.9,0.9,1.4,2.1,1.4,3.3l0,0c0,0.6-0.2,1.1-0.6,1.5
			C674.2,507.3,673.7,507.5,673.1,507.5z"/>
	</g>
	<g class="st3">
		<path class="st4" d="M720,529.3l-194.4,2.6c-0.3,0-0.6-0.1-0.9-0.2c-0.3-0.1-0.6-0.3-0.8-0.5c-0.2-0.2-0.4-0.5-0.5-0.8
			c-0.1-0.3-0.2-0.6-0.2-0.9v-3.9c0-0.6,0.3-1.3,0.7-1.7c0.5-0.5,1.1-0.7,1.7-0.7h194.4c0.6,0,1.3,0.3,1.7,0.7
			c0.5,0.5,0.7,1.1,0.7,1.7v1.4c0,0.6-0.2,1.2-0.7,1.7C721.2,529,720.6,529.3,720,529.3L720,529.3z"/>
	</g>
	<g class="st3">
		<path class="st4" d="M874.9,529.3l-136,2.5c-0.4,0-0.8-0.1-1.2-0.2c-0.4-0.2-0.7-0.4-1-0.7c-0.3-0.3-0.5-0.6-0.7-1
			c-0.2-0.4-0.2-0.8-0.2-1.2v-2.5c0-0.8,0.3-1.6,0.9-2.2c0.6-0.6,1.4-0.9,2.2-0.9h136.1c0.8,0,1.6,0.3,2.2,0.9
			c0.6,0.6,0.9,1.4,0.9,2.2c0,0.8-0.3,1.6-0.9,2.2C876.5,529,875.7,529.3,874.9,529.3L874.9,529.3z"/>
	</g>
	<g class="st3">
		<path class="st4" d="M1108,457.7l-274.1,3.2c-0.5,0-1-0.1-1.5-0.3c-0.5-0.2-0.9-0.5-1.3-0.8c-0.4-0.4-0.7-0.8-0.9-1.3
			c-0.2-0.5-0.3-1-0.3-1.5v-3.2c0-1,0.4-2,1.1-2.7c0.7-0.7,1.7-1.1,2.7-1.1H1108c1,0,2,0.4,2.7,1.1c0.7,0.7,1.1,1.7,1.1,2.7l0,0
			c0,1-0.4,2-1.1,2.7C1110,457.3,1109.1,457.7,1108,457.7L1108,457.7z"/>
	</g>
	<path class="st4" d="M645.5,376.9H533.9c-7.1,0-12.9,5.8-12.9,12.9v69.7c0,7.1,5.8,12.9,12.9,12.9h111.6c7.1,0,12.9-5.8,12.9-12.9
		v-69.7C658.4,382.7,652.6,376.9,645.5,376.9z"/>
	<g class="st3">
		<path class="st4" d="M788.8,376.9h-101c-6.1,0-11,4.9-11,11v73.6c0,6.1,4.9,11,11,11h101c6.1,0,11-4.9,11-11v-73.6
			C799.8,381.8,794.9,376.9,788.8,376.9z"/>
	</g>
	<path class="st7" d="M649.3,525.5c-0.7,39.8-3.6,94.2-12.7,141.9c-15.1,79.6-107.8,134.3-125,143.7c-0.8,0.5-1.8,0.7-2.7,0.8
		c-1,0-1.9-0.2-2.8-0.5c-145.1-66.6-142.9-167.8-142.9-167.8V524.7c0-1.6,0.6-3.1,1.8-4.3c1.1-1.1,2.7-1.8,4.3-1.8
		c22.1-0.4,99.2-4.5,132.9-44c0.5-0.6,1.2-1.2,2-1.5c0.8-0.4,1.6-0.6,2.4-0.6c0.8,0,1.7,0.1,2.5,0.4c0.8,0.3,1.5,0.8,2.1,1.4
		c14.5,14.7,61.8,55.6,137.9,51.2L649.3,525.5z"/>
	<path class="st9" d="M508.6,791.8c-0.1,0-0.2,0-0.3-0.1c-29.6-13.3-54.7-29.4-74.7-47.8c-16-14.7-28.7-31-37.9-48.3
		c-15.6-29.5-15.3-52.2-15.3-52.4v-99.6c0-2.7,1-5.3,2.9-7.3c1.9-2,4.5-3.1,7.2-3.2c10.9-0.4,32.3-1.8,54.2-7.3
		c26.1-6.6,45.3-16.9,57.2-30.7c0.6-0.7,1.2-1.2,2-1.6c0.8-0.4,1.6-0.6,2.5-0.6c0.9,0,1.7,0.1,2.5,0.4c0.8,0.3,1.5,0.8,2.1,1.4
		c8.1,8.3,29.7,28.4,57.5,36.3c17.3,4.8,35,7.6,52.9,8.3c2.7,0.1,5.2,1.3,7,3.2c1.8,1.9,2.8,4.5,2.7,7.2
		c-1.2,46.5-4.5,83.9-10.3,114.4c-3.3,17.6-11.3,35.3-23.7,52.5c-9.9,13.8-22.6,27.3-37.8,40.2c-15.6,13.3-32.6,24.9-50.5,34.8
		C508.8,791.7,508.7,791.8,508.6,791.8L508.6,791.8z M506.8,494.2h-0.2c-0.7,0-1.3,0.2-1.9,0.5c-0.6,0.3-1.2,0.7-1.6,1.2
		c-12,14-31.5,24.5-57.9,31.1c-22,5.5-43.6,7-54.5,7.4c-2.4,0.1-4.6,1.1-6.3,2.8c-1.6,1.7-2.6,4-2.6,6.3v99.7
		c0,0.2-0.3,22.7,15.1,51.9c9.1,17.2,21.7,33.3,37.6,47.9c19.8,18.2,44.7,34.2,74,47.4c17.8-9.8,34.5-21.4,50-34.5
		c23.7-20.1,53.6-52.4,61.1-91.9c5.8-30.5,9.1-67.8,10.3-114.2c0-2.3-0.8-4.5-2.4-6.2c-1.6-1.7-3.8-2.7-6.1-2.8
		c-18-0.7-35.9-3.5-53.2-8.3c-28.1-8.1-50-28.3-58.1-36.7c-0.4-0.5-1-0.8-1.6-1.1C508.1,494.3,507.4,494.2,506.8,494.2L506.8,494.2z
		"/>
	<path class="st9" d="M539.7,692.2h-91.8c-4.1,0-8-1.6-10.9-4.5c-2.9-2.9-4.5-6.8-4.5-10.9v-56.6c0-4.1,1.6-8,4.5-10.9
		c2.9-2.9,6.8-4.5,10.9-4.5h5.2c2.2-9.1,7.4-17.2,14.8-23c7.4-5.8,16.5-9,25.9-9c9.4,0,18.5,3.2,25.9,9c7.4,5.8,12.6,13.9,14.8,23
		h5.2c4.1,0,8,1.6,10.9,4.5c2.9,2.9,4.5,6.8,4.5,10.9v56.6c0,4.1-1.6,8-4.5,10.9C547.7,690.6,543.8,692.2,539.7,692.2z M447.9,606.2
		c-3.7,0-7.3,1.5-10,4.1c-2.6,2.6-4.1,6.2-4.1,10v56.6c0,3.7,1.5,7.3,4.1,9.9c2.6,2.6,6.2,4.1,10,4.1h91.8c3.7,0,7.3-1.5,10-4.1
		c2.6-2.6,4.1-6.2,4.1-9.9v-56.6c0-3.7-1.5-7.3-4.1-10c-2.6-2.6-6.2-4.1-10-4.1H534c-0.1,0-0.3-0.1-0.4-0.1
		c-0.1-0.1-0.2-0.2-0.2-0.4c-2.1-8.9-7.1-16.9-14.3-22.6c-7.2-5.7-16.1-8.8-25.3-8.8c-9.2,0-18.1,3.1-25.3,8.8
		c-7.2,5.7-12.2,13.7-14.3,22.6c0,0.1-0.1,0.3-0.2,0.4c-0.1,0.1-0.3,0.1-0.4,0.1H447.9z M523.5,606.2h-59.3c-0.1,0-0.2,0-0.3-0.1
		c-0.1,0-0.2-0.1-0.2-0.2c-0.1-0.1-0.1-0.2-0.1-0.3c0-0.1,0-0.2,0-0.3c2-6.5,6-12.1,11.5-16.1c5.5-4,12-6.2,18.8-6.2
		c6.8,0,13.4,2.2,18.8,6.2c5.5,4,9.5,9.6,11.5,16.1c0,0.1,0,0.2,0,0.3c0,0.1-0.1,0.2-0.1,0.3c-0.1,0.1-0.1,0.2-0.2,0.2
		C523.7,606.1,523.6,606.2,523.5,606.2L523.5,606.2z M465.1,604.8h57.5c-2.1-6-5.9-11.2-11.1-14.8c-5.2-3.7-11.3-5.6-17.7-5.6
		c-6.3,0-12.5,2-17.7,5.6C471,593.7,467.1,598.9,465.1,604.8L465.1,604.8z"/>
	<path class="st9" d="M548.7,596.6h-86.5c-8.7,0-15.8,7.1-15.8,15.8v54.5c0,8.7,7.1,15.8,15.8,15.8h86.5c8.7,0,15.8-7.1,15.8-15.8
		v-54.5C564.5,603.6,557.4,596.6,548.7,596.6z"/>
	<path class="st9" d="M505.4,647c-8.2,0-16.1-2.4-22.9-6.9c-6.8-4.5-12.1-11-15.2-18.5c-3.1-7.5-3.9-15.8-2.4-23.8
		c1.6-8,5.5-15.3,11.3-21.1c5.8-5.8,13.1-9.7,21.1-11.3c8-1.6,16.3-0.8,23.9,2.3c7.5,3.1,14,8.4,18.5,15.2c4.5,6.8,7,14.8,7,22.9
		c0,10.9-4.4,21.4-12.1,29.1C526.9,642.7,516.4,647,505.4,647L505.4,647z M505.4,574.7c-6.1,0-12.2,1.8-17.3,5.2
		c-5.1,3.4-9.1,8.3-11.5,13.9c-2.4,5.7-3,11.9-1.8,17.9c1.2,6,4.2,11.6,8.5,15.9c4.3,4.3,9.9,7.3,15.9,8.5c6,1.2,12.3,0.6,18-1.8
		c5.7-2.4,10.5-6.3,13.9-11.4c3.4-5.1,5.2-11.1,5.2-17.2c0-8.2-3.3-16.1-9.1-21.9C521.6,578,513.7,574.8,505.4,574.7L505.4,574.7z"
		/>
	<path class="st7" d="M505.4,643c-1.1,0-2.2-0.5-3-1.3c-0.8-0.8-1.3-1.9-1.3-3v-20.8c0-1.1,0.5-2.2,1.3-3c0.8-0.8,1.9-1.3,3-1.3l0,0
		c1.1,0,2.2,0.5,3,1.3c0.8,0.8,1.3,1.9,1.3,3v20.8c0,1.1-0.5,2.2-1.3,3C507.7,642.5,506.6,642.9,505.4,643L505.4,643z"/>
	<path class="st7" d="M505.4,661.9c6.4,0,11.6-5.2,11.6-11.6c0-6.4-5.2-11.6-11.6-11.6c-6.4,0-11.6,5.2-11.6,11.6
		C493.8,656.7,499,661.9,505.4,661.9z"/>
	<path class="st9" d="M716.4,348.6c-0.3,0-0.5-0.1-0.7-0.2l-16.5-8.3c-0.2-0.1-0.4-0.2-0.5-0.4c-0.1-0.2-0.3-0.4-0.3-0.6
		c-0.1-0.2-0.1-0.4-0.1-0.6c0-0.2,0.1-0.4,0.2-0.6c0.1-0.2,0.2-0.4,0.4-0.5c0.2-0.1,0.4-0.3,0.6-0.3c0.2-0.1,0.4-0.1,0.6-0.1
		c0.2,0,0.4,0.1,0.6,0.2l16.6,8.2c0.4,0.1,0.7,0.4,0.9,0.7c0.2,0.3,0.2,0.7,0.1,1.1c-0.1,0.4-0.3,0.7-0.6,0.9
		C717.2,348.5,716.8,348.6,716.4,348.6L716.4,348.6z"/>
	<path class="st9" d="M692.9,368.4c-0.4,0-0.9-0.1-1.2-0.4c-0.3-0.3-0.5-0.7-0.5-1.1c0-0.4,0.1-0.9,0.4-1.2c0.3-0.3,0.7-0.5,1.1-0.5
		l18.4-1.2c0.4,0,0.9,0.1,1.2,0.4c0.3,0.3,0.5,0.7,0.6,1.1c0,0.4-0.1,0.9-0.4,1.2c-0.3,0.3-0.7,0.5-1.1,0.6l-18.4,1.2L692.9,368.4z"
		/>
	<path class="st9" d="M703.3,395.9c-0.4,0-0.7-0.1-1-0.3s-0.5-0.5-0.6-0.9c-0.1-0.4-0.1-0.7,0.1-1.1c0.2-0.3,0.4-0.6,0.8-0.8l16-9.4
		c0.2-0.1,0.4-0.2,0.6-0.2c0.2,0,0.4,0,0.6,0c0.2,0.1,0.4,0.1,0.6,0.3c0.2,0.1,0.3,0.3,0.4,0.5c0.1,0.2,0.2,0.4,0.2,0.6
		c0,0.2,0,0.4,0,0.6c-0.1,0.2-0.1,0.4-0.3,0.6c-0.1,0.2-0.3,0.3-0.5,0.4l-16,9.4C703.9,395.8,703.6,395.9,703.3,395.9L703.3,395.9z"
		/>
	<path class="st9" d="M770.2,348.6c-0.3,0-0.6-0.1-0.9-0.2c-0.3-0.2-0.5-0.4-0.6-0.7c-0.1-0.2-0.2-0.4-0.2-0.6c0-0.2,0-0.4,0.1-0.6
		c0.1-0.2,0.2-0.4,0.3-0.6s0.3-0.3,0.5-0.4l16.6-8.2c0.2-0.1,0.4-0.2,0.6-0.2c0.2,0,0.4,0,0.6,0.1c0.2,0.1,0.4,0.2,0.6,0.3
		c0.2,0.1,0.3,0.3,0.4,0.5c0.1,0.2,0.2,0.4,0.2,0.6c0,0.2,0,0.4-0.1,0.6c-0.1,0.2-0.2,0.4-0.3,0.6c-0.1,0.2-0.3,0.3-0.5,0.4
		l-16.6,8.2C770.7,348.5,770.5,348.6,770.2,348.6z"/>
	<path class="st9" d="M793.7,368.4h-0.1l-18.4-1.2c-0.4,0-0.8-0.2-1.1-0.6c-0.3-0.3-0.4-0.8-0.4-1.2s0.2-0.8,0.6-1.1
		c0.3-0.3,0.8-0.4,1.2-0.4l18.4,1.2c0.4,0,0.8,0.2,1.1,0.5c0.3,0.3,0.5,0.7,0.4,1.2c0,0.4-0.2,0.8-0.5,1.1
		C794.6,368.3,794.1,368.4,793.7,368.4L793.7,368.4z"/>
	<path class="st9" d="M783.3,395.9c-0.3,0-0.6-0.1-0.8-0.2l-16-9.4c-0.2-0.1-0.3-0.3-0.5-0.4c-0.1-0.2-0.2-0.4-0.3-0.6
		c-0.1-0.2-0.1-0.4,0-0.6c0-0.2,0.1-0.4,0.2-0.6c0.1-0.2,0.3-0.3,0.4-0.5c0.2-0.1,0.4-0.2,0.6-0.3c0.2-0.1,0.4-0.1,0.6,0
		c0.2,0,0.4,0.1,0.6,0.2l16,9.4c0.3,0.2,0.6,0.4,0.8,0.8c0.2,0.3,0.2,0.7,0.1,1.1c-0.1,0.4-0.3,0.7-0.6,0.9S783.7,395.9,783.3,395.9
		L783.3,395.9z"/>
	<path class="st0" d="M776.2,359c0,21.3-14.1,38.7-31.9,39.7c-0.6,0-1.2,0-1.7,0c-18.5,0-33.6-17.8-33.6-39.7
		c-0.1-8.8,2.5-17.5,7.4-24.9c6.2-9.1,15.6-14.9,26.2-14.9c2.9,0,5.8,0.4,8.6,1.3c7.3,2.4,13.5,7.2,17.6,13.6
		C773.7,341.5,776.3,350.2,776.2,359L776.2,359z"/>
	<path class="st0" d="M776.2,359c0,21.3-14.1,38.7-31.9,39.7c-2.3-6.6-3.9-13.3-4.9-20.2c-2-14.3-1.2-27.8,1.9-38.8
		c2.2-7.8,5.5-14.4,9.8-19.1c7.3,2.4,13.5,7.2,17.7,13.6C773.7,341.5,776.3,350.2,776.2,359L776.2,359z"/>
	<path class="st9" d="M742.6,349.1c14.5,0,26.2-6.7,26.2-14.9c0-8.2-11.7-14.9-26.2-14.9c-14.5,0-26.2,6.7-26.2,14.9
		C716.4,342.4,728.2,349.1,742.6,349.1z"/>
	<path class="st9" d="M735.3,324.4c-0.4,0-0.8-0.2-1.1-0.5c-0.3-0.3-0.5-0.7-0.5-1.1c-0.3-12.4-11.8-17.5-11.9-17.5
		c-0.4-0.2-0.7-0.5-0.9-0.9c-0.2-0.4-0.2-0.9,0-1.3c0.2-0.4,0.5-0.7,0.9-0.9c0.4-0.2,0.9-0.2,1.3,0c0.6,0.2,13.6,5.9,13.9,20.5
		c0,0.2,0,0.4-0.1,0.6c-0.1,0.2-0.2,0.4-0.3,0.5c-0.2,0.2-0.3,0.3-0.5,0.4C735.8,324.4,735.5,324.4,735.3,324.4L735.3,324.4z"/>
	<path class="st9" d="M748.8,328.7c-0.4,0-0.8-0.2-1.1-0.4c-0.3-0.3-0.5-0.7-0.5-1.1c-1.4-17.5,10.6-24.5,11.1-24.8
		c0.4-0.2,0.8-0.3,1.2-0.2c0.4,0.1,0.8,0.4,1,0.8c0.2,0.4,0.3,0.8,0.2,1.2c-0.1,0.4-0.4,0.8-0.8,1c-0.5,0.3-10.7,6.3-9.4,21.7
		c0,0.2,0,0.4-0.1,0.6c-0.1,0.2-0.2,0.4-0.3,0.6c-0.1,0.2-0.3,0.3-0.5,0.4c-0.2,0.1-0.4,0.2-0.6,0.2L748.8,328.7z"/>
	<g class="st11">
		<path class="st7" d="M841.3,460.3c53.3-53.2,53.3-139.6,0-192.8c-53.3-53.2-139.7-53.2-193,0c-53.3,53.2-53.3,139.6,0,192.8
			C701.5,513.5,788,513.5,841.3,460.3z"/>
	</g>
	<path class="st12" d="M899.9,480.1c0,0-24.1,0.5-30.7-10c-6.6-10.6,4.6-19.7,4.6-19.7l35.9,19.4L899.9,480.1z"/>
	<path class="st9" d="M862.3,424.8l-10.5,16.9L1118,606.5l10.5-16.9L862.3,424.8z"/>
	<path class="st9" d="M1131.1,596.6l-5.7,9.2c-1.1,1.8-2.9,3-4.8,3.5c-2,0.5-4.1,0.1-5.9-1l-138.9-85.9c-1.8-1.1-3-2.8-3.5-4.8
		c-0.5-2-0.1-4.1,1-5.9l5.7-9.2c1.1-1.8,2.8-3,4.8-3.5c2-0.5,4.1-0.1,5.9,1l138.9,85.9c1.8,1.1,3,2.8,3.5,4.8
		C1132.6,592.7,1132.2,594.8,1131.1,596.6z"/>
	<path class="st9" d="M623.3,288.7c-14.9,24-22.3,51.9-21.3,80.1c1,28.2,10.3,55.5,26.8,78.4c16.5,22.9,39.4,40.4,65.9,50.3
		c26.5,9.9,55.3,11.7,82.8,5.3c27.5-6.5,52.5-20.9,71.8-41.6c19.3-20.6,32-46.5,36.5-74.4c4.6-27.9,0.7-56.4-11-82.1
		C863.1,279,844,257.4,820,242.5c-16-9.9-33.7-16.5-52.2-19.5c-18.5-3-37.5-2.4-55.7,1.9s-35.5,12.1-50.7,23.1
		C646.1,258.9,633.2,272.8,623.3,288.7L623.3,288.7z M855.6,432.4c-13.6,21.9-33.4,39.3-56.8,49.9c-23.5,10.7-49.6,14.1-75,10
		c-25.4-4.2-49.1-15.7-67.9-33.3c-18.8-17.6-32.1-40.3-38-65.4c-5.9-25.1-4.2-51.3,4.8-75.4c9-24.1,25-45,46-60.1
		c20.9-15,45.9-23.5,71.6-24.4c25.8-0.9,51.2,5.9,73.1,19.4c14.5,9,27.2,20.8,37.2,34.7c10,13.9,17.2,29.6,21.1,46.2
		c3.9,16.6,4.5,33.9,1.8,50.8C870.6,401.7,864.6,417.9,855.6,432.4z"/>
	<path class="st7" d="M1115.4,510.5c-6.4-48.2-60.6-75.5-60.6-75.5s4.6,107.5,13.8,104.3C1084.5,533.9,1106.2,533.8,1115.4,510.5z"
		/>
	<path class="st9" d="M1009.6,781.6c0,0-0.4,8.1-5.9,10.2c-5.4,2.2-21.1,3.8-15.4,9.1c3.3,3.1,19.1,1.6,23.6,1.7
		c4.5,0.1,8.6,2.2,12-0.7c3.7-3.2,0.5-19.9,0.5-19.9s-3.9,1.9-7.4,1.7C1012.1,783.5,1009.6,781.6,1009.6,781.6z"/>
	<path class="st13" d="M970.5,578.1c1,16.8,3,38.5,6.7,65.1c6.9,50.7,15.3,101.9,19.5,126.4c0.6,4.2,2.7,8,5.8,10.9
		c3.1,2.9,7.1,4.7,11.3,5l4.6,0.3c9.3,0.6,17-7.2,16.6-16.9l-7.3-165.3l-0.7-26.3C1027,577.3,968.8,550.6,970.5,578.1z"/>
	<path class="st9" d="M1060.7,783c0,0-0.4,8.1-5.9,10.2c-5.4,2.2-21.1,3.8-15.4,9.1c3.3,3.1,19.1,1.6,23.6,1.7
		c4.5,0.1,8.6,2.2,12-0.7c3.7-3.2,0.5-19.9,0.5-19.9s-3.9,1.9-7.4,1.7C1063.1,784.9,1060.7,783,1060.7,783z"/>
	<path class="st13" d="M1020.7,537.9c0,0-2,36.4,7.6,106.7c7,50.7,15.4,101.9,19.5,126.4c0.6,4.2,2.7,8,5.8,10.9
		c3.1,2.9,7.1,4.7,11.3,5l4.6,0.3c9.3,0.6,17-7.2,16.6-16.9l-7.3-165.3l-1.4-54.4L1020.7,537.9z"/>
	<path class="st9" d="M1030.5,658.9l-0.7-0.1c0-0.3,4-30.2,6.9-40.9c3-10.7,16.8-20.1,16.9-20.3l0.4,0.6
		c-0.1,0.1-13.7,9.3-16.6,19.9C1034.5,628.7,1030.5,658.6,1030.5,658.9z"/>
	<path class="st12" d="M1030.7,425.9l-3.6-10.9l-1-3.2l-6.1-18.7l-0.8,18.5l-0.5,11.1l-0.1,3.5c-0.1,2.4-1.7,2.9-3.5,5
		c-0.8,0.8-5.6,5.9-0.1,8.3c6.9,2.9,19.8-1.5,24.7-7.2C1039.5,432.5,1031.8,429.5,1030.7,425.9z"/>
	<path class="st12" d="M1038,403.4c2.1-10.9-4-21.1-13.5-23c-9.5-1.8-18.9,5.5-21,16.4c-2.1,10.9,4,21.1,13.5,23
		C1026.5,421.6,1035.9,414.2,1038,403.4z"/>
	<path class="st9" d="M1010.9,393.2c-10.1,0.4-15-5.1-15.1-10.2c-0.1-6.5,4.2-12.2,9.3-9.8c5.1,2.4,2.9-3.5,7.7-4.1
		c9.1-1.2,10.8,4.9,18.2,5.2c9.8,0.4,21,15.8,12.8,27C1043.9,401.3,1018.9,392.9,1010.9,393.2z"/>
	<path class="st9" d="M1002,386.7c0,0,10.8,9.8,9.3,15.2s-1.1,7.6,5.2,10.6c6.3,2.9,0.7,7.7,9.1,8.1c8.4,0.4,18.6-9,18.6-24.3
		c0-5.2-1.9-10.2-5.2-14.1L1002,386.7z"/>
	<path class="st14" d="M1005.9,401.7c0.5-0.8,1.4-1.3,2.3-1.5c0.9-0.2,1.9-0.1,2.7,0.4c0.4,0.3,0.7,0.6,0.9,1
		c0.2,0.4,0.4,0.8,0.4,1.3c0.1,0.5,0,0.9-0.1,1.4c-0.1,0.4-0.3,0.8-0.6,1.2c-0.5,0.8-1.4,1.3-2.3,1.5c-0.9,0.2-1.9,0-2.7-0.4
		c-0.4-0.3-0.7-0.6-0.9-1c-0.2-0.4-0.4-0.8-0.4-1.3c-0.1-0.5,0-0.9,0.1-1.4C1005.4,402.4,1005.6,402,1005.9,401.7z"/>
	<path class="st9" d="M1047.9,405.5c0,0-0.1,0-0.2-0.1c0,0-0.1-0.1-0.1-0.1c-0.4-1.4-1.3-2.5-2.6-3.2c0,0,0,0-0.1-0.1
		c0,0,0-0.1,0-0.1c0,0,0-0.1,0-0.1s0-0.1,0-0.1c0,0,0-0.1,0.1-0.1c0,0,0,0,0.1,0c0,0,0,0,0.1,0c0,0,0.1,0,0.1,0
		c1.4,0.8,2.4,2.1,2.9,3.6c0,0,0,0.1,0,0.1c0,0,0,0.1,0,0.1c0,0,0,0.1-0.1,0.1C1048,405.5,1048,405.5,1047.9,405.5L1047.9,405.5z"/>
	<path class="st9" d="M1045.2,400.9c-0.1,0-0.1,0-0.2-0.1c0,0-0.1-0.1-0.1-0.2c0,0,0-0.1,0-0.1c0,0,0-0.1,0-0.1c0,0,0.1,0,0.1-0.1
		c0,0,0,0,0.1,0c0,0,2.7-0.2,3.1-2.2c0-0.1,0.1-0.1,0.1-0.2c0,0,0.1-0.1,0.2,0c0.1,0,0.1,0.1,0.2,0.1c0,0.1,0,0.1,0,0.2
		C1048.3,400.7,1045.3,400.9,1045.2,400.9L1045.2,400.9z"/>
	<path class="st9" d="M1006.7,372.8c-0.2,0-0.4,0-0.5-0.1c-0.7-0.2-1.4-0.6-2.1-1c-0.6-0.5-1.3-0.8-2-0.9c-0.7-0.1-1.5-0.1-2.2,0.2
		c0,0-0.1,0-0.1,0c0,0-0.1,0-0.1,0c0,0,0,0-0.1-0.1c0,0,0-0.1,0-0.1c0,0,0-0.1,0-0.1c0,0,0-0.1,0-0.1c0,0,0-0.1,0.1-0.1
		c0,0,0,0,0.1,0c0.8-0.3,1.6-0.4,2.4-0.2c0.8,0.1,1.6,0.5,2.2,1c0.6,0.4,1.3,0.7,1.9,1c0.2,0.1,0.3,0.1,0.5,0c0.2,0,0.4-0.1,0.5-0.2
		c1.1-0.7,1.4-3.2,1.4-3.2c0-0.1,0-0.1,0.1-0.2c0,0,0.1-0.1,0.2-0.1c0,0,0.1,0,0.1,0c0,0,0,0,0.1,0.1c0,0,0,0.1,0,0.1
		c0,0,0,0.1,0,0.1c0,0.1-0.3,2.7-1.6,3.6C1007.3,372.7,1007,372.8,1006.7,372.8z"/>
	<path class="st9" d="M1030.3,373.5c-2.4-0.1-4.6-1-6.4-2.5c0,0,0,0-0.1-0.1s0-0.1,0-0.1c0,0,0-0.1,0-0.1c0,0,0-0.1,0-0.1
		c0,0,0,0,0.1-0.1c0,0,0.1,0,0.1,0c0,0,0.1,0,0.1,0c0,0,0,0,0.1,0.1c0,0,3.3,2.9,7.2,2.3c0.1,0,0.1,0,0.2,0c0.1,0,0.1,0.1,0.1,0.2
		c0,0.1,0,0.1,0,0.2c0,0.1-0.1,0.1-0.2,0.1C1031.1,373.4,1030.7,373.5,1030.3,373.5L1030.3,373.5z"/>
	<path class="st9" d="M1008.6,407.2c-0.2,0-0.5,0-0.7-0.1c0,0,0,0,0,0s0,0,0,0c0,0,0,0,0,0c0,0,0,0,0-0.1c0,0,0,0,0,0c0,0,0,0,0,0
		c0,0,0,0,0,0c0,0,0,0,0,0c0.1,0,2.3,0.7,3.8-2.2c0,0,0,0,0,0c0,0,0,0,0,0c0,0,0,0,0,0c0,0,0,0,0,0c0,0,0,0,0,0.1c0,0,0,0.1,0,0.1
		C1010.9,406.8,1009.4,407.2,1008.6,407.2z"/>
	<path class="st9" d="M970.5,578.1c0,0,73-4,107.7,4.4l0.5-10l-48.6-14.5l-39.2,1l-12,2.6l-8.5,13.3L970.5,578.1z"/>
	<path class="st7" d="M1071.7,456.1c0,0-6.4-28-45.7-28c-68.5,0-49.3,56.7-55.6,146.8c0,0,44.2-9.7,108.1,3.2c0,0,6.2-48.8-1.8-90
		C1074.5,477.1,1074.9,465.5,1071.7,456.1z"/>
	<path class="st7" d="M1018.1,428c0,0-22,0.3-38.3,16c-16.3,15.6-37.4,37.2-41.9,49.6c-5.5,15.3,4.6,30.6,17.5,30.9
		c12.8,0.3,24.4-9.1,24.4-9.1L1018.1,428z"/>
	<path class="st9" d="M1080.5,556h-0.5c1.9-35.3-4.3-71.5-4.3-71.9l0.5-0.1C1076.2,484.4,1082.4,520.7,1080.5,556z"/>
	<path class="st9" d="M972.2,520.5l-0.3-0.4c12.9-7.7,29.7-28.1,29.9-28.3l0.4,0.3C1002,492.3,985.1,512.7,972.2,520.5z"/>
	<path class="st7" d="M882.5,484.1c-0.2,10,49.4,46.5,79.1,40.4c31.6-6.4-7.4-41.6-7.4-41.6l-58.2-13.4
		C895.9,469.5,882.6,474,882.5,484.1z"/>
	<path class="st12" d="M895.9,469.5c0.2-1.2,0-2.3-0.4-3.5c-0.4-1.1-1.1-2.1-1.9-2.9c-3-2.6-6.1-14.6-8.1-11.6
		c-1.9,3-0.1,12.6-3.1,13.6C879.5,466.2,895.9,469.5,895.9,469.5z"/>
	<path class="st7" d="M917.7,256h-2.9c-0.4,0-0.8,0.2-1,0.4c-0.3,0.3-0.4,0.6-0.4,1v12.9c0,0.4-0.2,0.7-0.4,1
		c-0.3,0.3-0.6,0.4-1,0.4h-1c-0.4,0-0.7-0.2-1-0.4c-0.3-0.3-0.4-0.6-0.4-1v-12.9c0-0.4-0.2-0.7-0.4-1c-0.3-0.3-0.6-0.4-1-0.4h-2.9
		c-0.4,0-0.8-0.2-1-0.4c-0.3-0.3-0.4-0.6-0.4-1v-0.3c0-0.4,0.2-0.7,0.4-1c0.3-0.3,0.6-0.4,1-0.4h12.6c0.4,0,0.7,0.2,1,0.4
		c0.3,0.3,0.4,0.6,0.4,1v0.3c0,0.4-0.1,0.7-0.4,1C918.5,255.8,918.1,256,917.7,256L917.7,256z"/>
	<path class="st7" d="M931.3,263.5h-4.6c-0.4,0-0.7,0.2-1,0.4c-0.3,0.3-0.4,0.6-0.4,1v2.2c0,0.4,0.1,0.7,0.4,1
		c0.3,0.3,0.6,0.4,1,0.4h5.9c0.2,0,0.4,0,0.6,0.1c0.2,0.1,0.3,0.2,0.5,0.3c0.1,0.1,0.3,0.3,0.3,0.5c0.1,0.2,0.1,0.4,0.1,0.5v0.3
		c0,0.2,0,0.4-0.1,0.6s-0.2,0.3-0.3,0.5c-0.1,0.1-0.3,0.2-0.5,0.3c-0.2,0.1-0.4,0.1-0.6,0.1h-9.8c-0.4,0-0.7-0.2-1-0.4
		c-0.3-0.3-0.4-0.6-0.4-1v-16.1c0-0.4,0.1-0.7,0.4-1c0.3-0.3,0.6-0.4,1-0.4h9.8c0.4,0,0.7,0.2,1,0.4c0.3,0.3,0.4,0.6,0.4,1v0.3
		c0,0.4-0.1,0.7-0.4,1c-0.3,0.3-0.6,0.4-1,0.4h-5.9c-0.4,0-0.7,0.2-1,0.4c-0.3,0.3-0.4,0.6-0.4,1v1.6c0,0.4,0.1,0.7,0.4,1
		c0.3,0.3,0.6,0.4,1,0.4h4.6c0.4,0,0.7,0.2,1,0.4c0.3,0.3,0.4,0.6,0.4,1v0.2c0,0.2,0,0.4-0.1,0.6c-0.1,0.2-0.2,0.4-0.3,0.5
		c-0.1,0.1-0.3,0.3-0.5,0.3C931.7,263.5,931.5,263.5,931.3,263.5L931.3,263.5z"/>
	<path class="st7" d="M946.3,266.7c0-0.3,0-0.6-0.1-0.9c-0.1-0.3-0.3-0.5-0.6-0.7c-0.3-0.3-0.7-0.5-1.1-0.7
		c-0.6-0.3-1.2-0.5-1.9-0.7c-0.8-0.3-1.6-0.6-2.4-0.9c-0.7-0.3-1.4-0.7-2-1.2c-0.6-0.4-1-1-1.4-1.6c-0.3-0.7-0.5-1.4-0.5-2.2
		c0-0.8,0.2-1.5,0.5-2.2c0.3-0.7,0.8-1.2,1.4-1.7c0.7-0.5,1.4-0.9,2.2-1.1c0.9-0.3,1.9-0.4,2.8-0.4c1,0,1.9,0.1,2.9,0.4
		c0.8,0.3,1.6,0.7,2.2,1.2c0.6,0.5,1.1,1.1,1.4,1.9c0.1,0.2,0.1,0.3,0.2,0.5c0.1,0.2,0.1,0.4,0,0.7c0,0.2-0.1,0.4-0.3,0.6
		c-0.1,0.2-0.3,0.3-0.5,0.4c-0.2,0.1-0.4,0.2-0.6,0.2h-1.1c-0.3,0-0.6-0.1-0.8-0.3c-0.3-0.2-0.4-0.4-0.5-0.7c0,0,0-0.1,0-0.1
		c-0.1-0.3-0.3-0.6-0.6-0.9c-0.3-0.3-0.6-0.4-1-0.6c-0.4-0.1-0.9-0.2-1.4-0.2c-0.4,0-0.9,0-1.3,0.2c-0.3,0.1-0.7,0.3-1,0.5
		c-0.2,0.2-0.4,0.4-0.6,0.7c-0.1,0.3-0.2,0.6-0.2,0.9c0,0.3,0.1,0.7,0.3,0.9c0.2,0.3,0.4,0.5,0.7,0.7c0.9,0.5,1.8,0.9,2.8,1.2
		c1,0.3,1.9,0.6,2.7,1.1c0.7,0.3,1.4,0.8,2,1.3c0.5,0.5,0.9,1,1.2,1.7c0.3,0.7,0.4,1.4,0.4,2.1c0,0.8-0.2,1.5-0.5,2.2
		c-0.3,0.6-0.8,1.2-1.4,1.6c-0.6,0.5-1.4,0.8-2.2,1c-0.9,0.3-1.9,0.4-2.8,0.4c-0.6,0-1.3-0.1-1.9-0.2c-0.6-0.1-1.2-0.3-1.8-0.5
		c-0.6-0.2-1.1-0.5-1.6-0.8c-0.5-0.3-0.9-0.7-1.3-1.2c-0.3-0.5-0.6-1-0.8-1.6v-0.1c-0.1-0.2-0.1-0.4,0-0.7c0-0.2,0.1-0.4,0.3-0.6
		c0.1-0.2,0.3-0.3,0.5-0.4c0.2-0.1,0.4-0.2,0.6-0.2h1c0.3,0,0.6,0.1,0.9,0.3c0.3,0.2,0.4,0.5,0.5,0.8c0,0.1,0.1,0.3,0.1,0.4
		c0.2,0.4,0.4,0.7,0.7,1c0.4,0.3,0.8,0.4,1.2,0.5c0.5,0.1,1,0.2,1.5,0.2c0.4,0,0.9,0,1.3-0.2c0.3-0.1,0.6-0.2,0.9-0.4
		c0.3-0.2,0.4-0.4,0.6-0.7C946.2,267.4,946.3,267,946.3,266.7L946.3,266.7z"/>
	<path class="st7" d="M965.7,256h-2.9c-0.4,0-0.8,0.2-1,0.4c-0.3,0.3-0.4,0.6-0.4,1v12.9c0,0.4-0.2,0.7-0.4,1
		c-0.3,0.3-0.6,0.4-1,0.4h-1c-0.4,0-0.7-0.2-1-0.4c-0.3-0.3-0.4-0.6-0.4-1v-12.9c0-0.4-0.2-0.7-0.4-1c-0.3-0.3-0.6-0.4-1-0.4h-2.8
		c-0.4,0-0.7-0.2-1-0.4c-0.3-0.3-0.4-0.6-0.4-1v-0.3c0-0.2,0-0.4,0.1-0.6c0.1-0.2,0.2-0.3,0.3-0.5c0.1-0.1,0.3-0.3,0.5-0.3
		c0.2-0.1,0.3-0.1,0.6-0.1h12.6c0.4,0,0.8,0.2,1,0.4c0.3,0.3,0.4,0.6,0.4,1v0.3c0,0.2,0,0.4-0.1,0.6c-0.1,0.2-0.2,0.4-0.3,0.5
		c-0.1,0.1-0.3,0.3-0.5,0.3C966.1,255.9,965.9,256,965.7,256L965.7,256z"/>
	<path class="st7" d="M972.1,271.7h-1c-0.4,0-0.7-0.2-1-0.4c-0.3-0.3-0.4-0.6-0.4-1v-16.1c0-0.4,0.2-0.7,0.4-1
		c0.3-0.3,0.6-0.4,1-0.4h1c0.4,0,0.7,0.2,1,0.4c0.3,0.3,0.4,0.6,0.4,1v16.1c0,0.4-0.2,0.7-0.4,1
		C972.8,271.6,972.4,271.7,972.1,271.7z"/>
	<path class="st7" d="M991.1,271.7h-1.6c-0.3,0-0.5-0.1-0.7-0.2s-0.4-0.3-0.5-0.5l-4.5-7.4c-0.2-0.3-0.4-0.5-0.7-0.6
		c-0.3-0.1-0.6-0.1-0.9,0c-0.3,0.1-0.6,0.3-0.8,0.5c-0.2,0.2-0.3,0.5-0.3,0.9v5.9c0,0.4-0.2,0.7-0.4,1c-0.3,0.3-0.6,0.4-1,0.4h-1
		c-0.4,0-0.7-0.2-1-0.4c-0.3-0.3-0.4-0.6-0.4-1v-16.1c0-0.4,0.1-0.7,0.4-1c0.3-0.3,0.6-0.4,1-0.4h1.7c0.2,0,0.5,0.1,0.7,0.2
		c0.2,0.1,0.4,0.3,0.5,0.5l4.5,7.4c0.2,0.3,0.4,0.5,0.7,0.6c0.3,0.1,0.6,0.1,0.9,0c0.3-0.1,0.6-0.3,0.8-0.5c0.2-0.2,0.3-0.6,0.3-0.9
		v-5.9c0-0.4,0.2-0.7,0.4-1c0.3-0.3,0.6-0.4,1-0.4h1c0.4,0,0.8,0.2,1,0.4c0.3,0.3,0.4,0.6,0.4,1v16.1c0,0.4-0.1,0.7-0.4,1
		C991.9,271.6,991.5,271.7,991.1,271.7z"/>
	<path class="st7" d="M1011,268.7c0,0.2,0,0.4-0.1,0.6c-0.1,0.2-0.2,0.4-0.4,0.5c-0.1,0.1-0.3,0.2-0.4,0.4c-0.4,0.3-1,0.6-1.5,0.9
		c-0.7,0.3-1.4,0.5-2.1,0.7c-0.9,0.2-1.9,0.3-2.8,0.3c-1.1,0-2.3-0.2-3.4-0.6c-1-0.4-1.9-1-2.6-1.8c-0.7-0.8-1.3-1.8-1.7-2.9
		c-0.4-1.3-0.6-2.6-0.6-3.9v-1.1c0-1.3,0.2-2.6,0.6-3.9c0.3-1.1,0.9-2,1.6-2.9c0.7-0.8,1.5-1.4,2.5-1.8c1-0.4,2.2-0.6,3.3-0.6
		c1.1,0,2.2,0.1,3.2,0.5c0.8,0.3,1.6,0.7,2.2,1.3c0.6,0.6,1.1,1.2,1.4,2c0.1,0.2,0.2,0.4,0.3,0.7c0.1,0.2,0.1,0.4,0,0.7
		c0,0.2-0.1,0.4-0.3,0.6c-0.1,0.2-0.3,0.3-0.5,0.4c-0.2,0.1-0.4,0.2-0.6,0.2h-0.9c-0.3,0-0.6-0.1-0.9-0.3c-0.2-0.2-0.4-0.4-0.5-0.7
		l-0.1-0.3c-0.2-0.4-0.4-0.7-0.7-1c-0.3-0.3-0.7-0.5-1.1-0.6c-0.5-0.2-1-0.2-1.5-0.2c-0.6,0-1.2,0.1-1.7,0.4c-0.5,0.3-1,0.7-1.3,1.2
		c-0.8,1.4-1.2,2.9-1.1,4.5v1.1c-0.1,1.6,0.3,3.2,1.2,4.5c0.4,0.5,0.9,0.9,1.4,1.2c0.6,0.3,1.2,0.4,1.8,0.4c0.4,0,0.8,0,1.2-0.1
		c0.3,0,0.6-0.1,0.9-0.2c0.2-0.1,0.4-0.2,0.6-0.3c0.2-0.1,0.3-0.2,0.4-0.3v-1.8c0-0.4-0.2-0.7-0.4-1c-0.3-0.3-0.6-0.4-1-0.4h-0.7
		c-0.4,0-0.7-0.2-1-0.4c-0.3-0.3-0.4-0.6-0.4-1l0,0c0-0.4,0.2-0.7,0.4-1c0.3-0.3,0.6-0.4,1-0.4h4.6c0.2,0,0.4,0,0.5,0.1
		c0.2,0.1,0.3,0.2,0.5,0.3c0.1,0.1,0.2,0.3,0.3,0.5c0.1,0.2,0.1,0.4,0.1,0.6L1011,268.7z"/>
</g>
</svg>
