<?xml version="1.0" encoding="utf-8"?>
<!-- Generator: Adobe Illustrator 26.1.0, SVG Export Plug-In . SVG Version: 6.00 Build 0)  -->
<svg version="1.1" id="Layer_1" xmlns="http://www.w3.org/2000/svg" xmlns:xlink="http://www.w3.org/1999/xlink" x="0px" y="0px"
	 viewBox="0 0 600 500" style="enable-background:new 0 0 600 500;" xml:space="preserve">
<style type="text/css">
	.st0{fill:#66C5FF;}
	.st1{opacity:0.6;fill:#FFFFFF;enable-background:new    ;}
	.st2{opacity:0.6;}
	.st3{fill:#FFFFFF;}
	.st4{fill:#24A7FF;}
	.st5{fill:#3BB0FF;}
	.st6{fill:#3D4959;}
	.st7{fill:#D6E0EA;}
	.st8{fill:#EDEDED;}
	.st9{opacity:0.2;fill:#FFFFFF;enable-background:new    ;}
	.st10{fill:#F3F9FF;}
	.st11{fill:#425160;}
	.st12{fill:#41566D;}
	.st13{fill:#E4EFF7;}
	.st14{fill:#DDE9F2;}
	.st15{fill:#55738E;}
</style>
<g>
	<path class="st0" d="M96.3,139.1c0.7-7.2,3.3-14.1,7.4-20c4.1-5.9,9.7-10.7,16.2-14c6.5-3.2,13.7-4.7,20.9-4.4
		c7.2,0.3,14.2,2.4,20.4,6.2c5.6-3.9,12.1-6.4,18.9-7.1c6.8-0.7,13.7,0.3,20,3c6.3,2.7,11.8,7,15.9,12.4c4.2,5.4,6.9,11.8,7.9,18.6
		c10.2,2.4,19.1,8.4,25.2,17c6,8.6,8.7,19,7.5,29.4c-1.2,10.4-6.2,20-14,27c-7.8,7-17.9,10.8-28.4,10.8H111.8
		c-9.5,0-18.7-3.3-26-9.3c-7.3-6-12.3-14.4-14.2-23.8c-1.8-9.3-0.4-19,4.2-27.4C80.3,149.2,87.6,142.7,96.3,139.1L96.3,139.1z"/>
	<path class="st1" d="M200.8,171.6c1-4.9,1-9.9,0-14.8L195,156c-0.6-2.4-1.6-4.7-2.8-6.8l3.5-4.7c-2.7-4.2-6.3-7.7-10.5-10.5
		l-4.7,3.5c-2.1-1.2-4.4-2.2-6.8-2.8l-0.8-5.8c-4.9-1-9.9-1-14.8,0l-0.8,5.8c-2.4,0.7-4.7,1.6-6.8,2.8l-4.7-3.5
		c-4.2,2.7-7.7,6.3-10.5,10.5l3.5,4.7c-1.2,2.1-2.2,4.4-2.8,6.8l-5.8,0.8c-1,4.9-1,9.9,0,14.8l5.8,0.8c0.7,2.4,1.6,4.7,2.8,6.8
		l-3.5,4.7c2.7,4.2,6.3,7.7,10.5,10.5l4.7-3.5c2.1,1.2,4.4,2.2,6.8,2.8l0.8,5.8c4.9,1,9.9,1,14.8,0l0.8-5.8c2.4-0.7,4.7-1.6,6.8-2.8
		l4.7,3.5c4.2-2.7,7.7-6.3,10.5-10.5l-3.5-4.7c1.2-2.1,2.2-4.4,2.8-6.8L200.8,171.6z M165.4,181.7c-3.4,0-6.8-1-9.7-2.9
		c-2.9-1.9-5.1-4.6-6.4-7.8c-1.3-3.2-1.7-6.7-1-10.1c0.7-3.4,2.3-6.5,4.8-8.9s5.5-4.1,8.9-4.8c3.4-0.7,6.9-0.3,10.1,1
		c3.2,1.3,5.9,3.6,7.8,6.4c1.9,2.9,2.9,6.2,2.9,9.7c0,2.3-0.4,4.6-1.3,6.7c-0.9,2.1-2.2,4-3.8,5.7c-1.6,1.6-3.5,2.9-5.6,3.8
		C170,181.3,167.7,181.7,165.4,181.7z"/>
	<path class="st0" d="M330,98.7c0.8-7.2,3.3-14.1,7.4-20c4.1-5.9,9.7-10.7,16.2-14c6.5-3.2,13.7-4.7,20.9-4.4
		c7.2,0.3,14.2,2.4,20.4,6.2c5.6-3.9,12.1-6.4,18.9-7.1c6.8-0.7,13.7,0.3,20,3.1c6.3,2.7,11.8,7,15.9,12.4
		c4.2,5.4,6.9,11.8,7.9,18.6c10.2,2.4,19.2,8.4,25.2,17c6,8.6,8.7,19,7.5,29.4c-1.2,10.4-6.2,20-14,27s-17.9,10.8-28.4,10.8H345.4
		c-9.5,0-18.7-3.3-26-9.3c-7.3-6-12.3-14.4-14.2-23.8c-1.8-9.3-0.4-19,4.2-27.4C313.9,108.8,321.2,102.3,330,98.7L330,98.7z"/>
	<g class="st2">
		<path class="st3" d="M379.2,135c0-5.8,3.1-9,7.2-9c4.1,0,7.2,3.3,7.2,9s-3.1,9-7.2,9C382.3,144,379.2,140.8,379.2,135z M391.1,135
			c0-4.5-1.9-6.8-4.7-6.8c-2.7,0-4.7,2.3-4.7,6.8c0,4.5,1.9,6.8,4.7,6.8S391.1,139.5,391.1,135L391.1,135z"/>
		<path class="st3" d="M396,135c0-5.8,3.1-9,7.2-9c4.1,0,7.2,3.3,7.2,9s-3.1,9-7.2,9C399.1,144,396,140.8,396,135z M407.9,135
			c0-4.5-1.9-6.8-4.7-6.8c-2.7,0-4.7,2.3-4.7,6.8c0,4.5,1.9,6.8,4.7,6.8C406,141.8,407.9,139.5,407.9,135z"/>
		<path class="st3" d="M418.3,126.2v17.7h-2.5v-15.5h-4v-2.2H418.3z"/>
		<path class="st3" d="M422.1,135c0-5.8,3.1-9,7.2-9c4.1,0,7.2,3.3,7.2,9s-3.1,9-7.2,9C425.2,144,422.1,140.8,422.1,135z M434,135
			c0-4.5-1.9-6.8-4.7-6.8c-2.7,0-4.7,2.3-4.7,6.8c0,4.5,1.9,6.8,4.7,6.8C432.1,141.8,434,139.5,434,135z"/>
		<path class="st3" d="M444.3,126.2v17.7h-2.5v-15.5h-4v-2.2H444.3z"/>
		<path class="st3" d="M448.2,135c0-5.8,3.1-9,7.2-9c4.1,0,7.2,3.3,7.2,9s-3.1,9-7.2,9C451.3,144,448.2,140.8,448.2,135z M460.1,135
			c0-4.5-1.9-6.8-4.7-6.8c-2.7,0-4.7,2.3-4.7,6.8c0,4.5,1.9,6.8,4.7,6.8C458.2,141.8,460.1,139.5,460.1,135z"/>
		<path class="st3" d="M470.4,126.2v17.7h-2.5v-15.5h-4v-2.2H470.4z"/>
	</g>
	<path class="st4" d="M196.5,328.2c0-9.7-3.1-19.1-8.8-27c-5.7-7.8-13.8-13.6-23-16.5c-0.9-7.3-3.7-14.2-8-20.1
		c-4.3-5.9-10.1-10.6-16.7-13.6c-6.6-3-14-4.3-21.3-3.7c-7.3,0.6-14.3,3-20.4,7.1c-6.1-4.1-13.1-6.5-20.4-7.1
		c-7.3-0.6-14.6,0.7-21.3,3.7c-6.7,3-12.4,7.7-16.7,13.6c-4.3,5.9-7.1,12.8-8,20.1c-10.4,3.3-19.2,10.2-25,19.4
		c-5.7,9.2-8,20.2-6.3,31c1.7,10.8,7.1,20.6,15.4,27.7c8.3,7.1,18.8,11,29.6,11h106.4c11.9-0.3,23.2-5.2,31.6-13.7
		C191.8,351.5,196.5,340.1,196.5,328.2L196.5,328.2z"/>
	<path class="st5" d="M97.8,254.1c-6.1-4-13.1-6.3-20.3-6.9c-7.3-0.5-14.5,0.8-21.1,3.9c-6.6,3.1-12.3,7.7-16.6,13.6
		c-4.3,5.9-7,12.7-7.9,20c-10.4,3.3-19.2,10.2-25,19.4c-5.7,9.2-8,20.2-6.3,31c1.7,10.8,7.1,20.6,15.4,27.7c8.3,7.1,18.8,11,29.6,11
		h31.9L97.8,254.1z"/>
	<path class="st6" d="M209.2,351.5H92.9v8.7h116.2V351.5z"/>
	<path class="st6" d="M209.2,309.6H92.9v8.7h116.2V309.6z"/>
	<path class="st7" d="M214.4,358H87.2c-3.3,0-6,2.7-6,6v26.9c0,3.3,2.7,6,6,6h127.1c3.3,0,6-2.7,6-6V364
		C220.3,360.7,217.7,358,214.4,358z"/>
	<path class="st8" d="M139,358l-6.3,38.9H87.2c-1.6,0-3.1-0.6-4.2-1.8c-1.1-1.1-1.7-2.6-1.7-4.2V364c0-1.6,0.6-3.1,1.7-4.2
		c1.1-1.1,2.6-1.8,4.2-1.8H139z"/>
	<path class="st6" d="M211.8,388.4v-21.8h-122v21.8H211.8z"/>
	<path class="st4" d="M202.2,377.5c0,0.7-0.2,1.5-0.6,2.1c-0.4,0.6-1,1.1-1.7,1.4c-0.7,0.3-1.4,0.4-2.2,0.2c-0.7-0.1-1.4-0.5-1.9-1
		c-0.5-0.5-0.9-1.2-1-1.9c-0.1-0.7-0.1-1.5,0.2-2.2c0.3-0.7,0.8-1.3,1.4-1.7c0.6-0.4,1.3-0.6,2.1-0.6c1,0,1.9,0.4,2.6,1.1
		C201.8,375.5,202.2,376.5,202.2,377.5L202.2,377.5z"/>
	<path class="st4" d="M186,377.5c0,0.6-0.2,1.3-0.5,1.8c-0.4,0.5-0.9,0.9-1.4,1.2c-0.6,0.2-1.2,0.3-1.9,0.2
		c-0.6-0.1-1.2-0.4-1.6-0.9c-0.5-0.4-0.8-1-0.9-1.6c-0.1-0.6-0.1-1.3,0.2-1.9c0.2-0.6,0.7-1.1,1.2-1.4c0.5-0.4,1.1-0.5,1.8-0.5
		c0.9,0,1.7,0.3,2.3,0.9C185.6,375.8,186,376.6,186,377.5L186,377.5z"/>
	<path class="st3" d="M170.3,377.5c0,0.6-0.2,1.3-0.5,1.8c-0.4,0.5-0.9,0.9-1.4,1.2c-0.6,0.2-1.2,0.3-1.9,0.2
		c-0.6-0.1-1.2-0.4-1.6-0.9c-0.5-0.4-0.8-1-0.9-1.6c-0.1-0.6-0.1-1.3,0.2-1.9c0.2-0.6,0.7-1.1,1.2-1.4c0.5-0.4,1.1-0.5,1.8-0.5
		c0.9,0,1.7,0.3,2.3,0.9C170,375.8,170.3,376.6,170.3,377.5L170.3,377.5z"/>
	<path class="st4" d="M154.7,377.5c0,0.6-0.2,1.3-0.5,1.8c-0.4,0.5-0.9,0.9-1.4,1.2c-0.6,0.2-1.2,0.3-1.9,0.2
		c-0.6-0.1-1.2-0.4-1.6-0.9c-0.5-0.4-0.8-1-0.9-1.6c-0.1-0.6-0.1-1.3,0.2-1.9c0.2-0.6,0.7-1.1,1.2-1.4c0.5-0.4,1.1-0.5,1.8-0.5
		c0.9,0,1.7,0.3,2.3,0.9C154.3,375.8,154.7,376.6,154.7,377.5L154.7,377.5z"/>
	<path class="st3" d="M139,377.5c0,0.6-0.2,1.3-0.5,1.8c-0.4,0.5-0.9,0.9-1.4,1.2c-0.6,0.2-1.2,0.3-1.9,0.2
		c-0.6-0.1-1.2-0.4-1.6-0.9c-0.5-0.4-0.8-1-0.9-1.6c-0.1-0.6-0.1-1.3,0.2-1.9c0.2-0.6,0.7-1.1,1.2-1.4c0.5-0.4,1.1-0.5,1.8-0.5
		c0.9,0,1.7,0.3,2.3,0.9C138.7,375.8,139,376.6,139,377.5L139,377.5z"/>
	<path class="st7" d="M214.4,315.4H87.2c-3.3,0-6,2.7-6,6v26.9c0,3.3,2.7,6,6,6h127.1c3.3,0,6-2.7,6-6v-26.9
		C220.3,318.1,217.7,315.4,214.4,315.4z"/>
	<path class="st8" d="M145.9,315.4l-6.3,38.9H87.2c-1.6,0-3.1-0.6-4.2-1.8c-1.1-1.1-1.7-2.6-1.7-4.2v-26.9c0-1.6,0.6-3.1,1.7-4.2
		c1.1-1.1,2.6-1.8,4.2-1.8H145.9z"/>
	<path class="st6" d="M211.8,345.8V324h-122v21.8H211.8z"/>
	<path class="st7" d="M214.4,273.5H87.2c-3.3,0-6,2.7-6,6v26.9c0,3.3,2.7,6,6,6h127.1c3.3,0,6-2.7,6-6v-26.9
		C220.3,276.2,217.7,273.5,214.4,273.5z"/>
	<path class="st8" d="M152.7,273.5l-6.3,38.9H87.2c-1.6,0-3.1-0.6-4.2-1.8c-1.1-1.1-1.7-2.6-1.7-4.2v-26.9c0-1.6,0.6-3.1,1.7-4.2
		c1.1-1.1,2.6-1.8,4.2-1.8H152.7z"/>
	<path class="st6" d="M211.8,303.8v-21.8h-122v21.8H211.8z"/>
	<path class="st4" d="M198.4,338.6c2.1,0,3.7-1.7,3.7-3.8c0-2.1-1.7-3.8-3.7-3.8s-3.7,1.7-3.7,3.8
		C194.7,337,196.4,338.6,198.4,338.6z"/>
	<path class="st4" d="M186,334.9c0,0.6-0.2,1.3-0.5,1.8c-0.4,0.5-0.9,0.9-1.4,1.2c-0.6,0.2-1.2,0.3-1.9,0.2
		c-0.6-0.1-1.2-0.4-1.6-0.9c-0.5-0.5-0.8-1-0.9-1.6s-0.1-1.3,0.2-1.9c0.2-0.6,0.7-1.1,1.2-1.4c0.5-0.4,1.1-0.5,1.8-0.5
		c0.9,0,1.7,0.3,2.3,0.9C185.6,333.2,186,334,186,334.9L186,334.9z"/>
	<path class="st3" d="M170.3,334.9c0,0.6-0.2,1.3-0.5,1.8c-0.4,0.5-0.9,0.9-1.4,1.2c-0.6,0.2-1.2,0.3-1.9,0.2
		c-0.6-0.1-1.2-0.4-1.6-0.9c-0.5-0.5-0.8-1-0.9-1.6s-0.1-1.3,0.2-1.9c0.2-0.6,0.7-1.1,1.2-1.4c0.5-0.4,1.1-0.5,1.8-0.5
		c0.9,0,1.7,0.3,2.3,0.9C170,333.2,170.3,334,170.3,334.9L170.3,334.9z"/>
	<path class="st4" d="M154.7,334.9c0,0.6-0.2,1.3-0.5,1.8c-0.4,0.5-0.9,0.9-1.4,1.2c-0.6,0.2-1.2,0.3-1.9,0.2
		c-0.6-0.1-1.2-0.4-1.6-0.9c-0.5-0.5-0.8-1-0.9-1.6s-0.1-1.3,0.2-1.9c0.2-0.6,0.7-1.1,1.2-1.4c0.5-0.4,1.1-0.5,1.8-0.5
		c0.9,0,1.7,0.3,2.3,0.9C154.3,333.2,154.7,334,154.7,334.9L154.7,334.9z"/>
	<path class="st3" d="M139,334.9c0,0.6-0.2,1.3-0.5,1.8c-0.4,0.5-0.9,0.9-1.4,1.2c-0.6,0.2-1.2,0.3-1.9,0.2
		c-0.6-0.1-1.2-0.4-1.6-0.9c-0.5-0.5-0.8-1-0.9-1.6s-0.1-1.3,0.2-1.9c0.2-0.6,0.7-1.1,1.2-1.4c0.5-0.4,1.1-0.5,1.8-0.5
		c0.9,0,1.7,0.3,2.3,0.9C138.7,333.2,139,334,139,334.9L139,334.9z"/>
	<path class="st4" d="M202.2,292.9c0,0.7-0.2,1.5-0.6,2.1c-0.4,0.6-1,1.1-1.7,1.4c-0.7,0.3-1.4,0.4-2.2,0.2c-0.7-0.1-1.4-0.5-1.9-1
		c-0.5-0.5-0.9-1.2-1-1.9c-0.1-0.7-0.1-1.5,0.2-2.2c0.3-0.7,0.8-1.3,1.4-1.7c0.6-0.4,1.3-0.6,2.1-0.6c1,0,1.9,0.4,2.7,1.1
		C201.8,291,202.2,292,202.2,292.9L202.2,292.9z"/>
	<path class="st3" d="M186,292.9c0,0.6-0.2,1.3-0.5,1.8c-0.4,0.5-0.9,0.9-1.4,1.2c-0.6,0.2-1.2,0.3-1.9,0.2
		c-0.6-0.1-1.2-0.4-1.6-0.9c-0.5-0.5-0.8-1-0.9-1.6s-0.1-1.3,0.2-1.9c0.2-0.6,0.7-1.1,1.2-1.4c0.5-0.4,1.1-0.5,1.8-0.5
		c0.9,0,1.7,0.3,2.3,0.9C185.6,291.3,186,292.1,186,292.9L186,292.9z"/>
	<path class="st3" d="M170.3,292.9c0,0.6-0.2,1.3-0.5,1.8c-0.4,0.5-0.9,0.9-1.4,1.2c-0.6,0.2-1.2,0.3-1.9,0.2
		c-0.6-0.1-1.2-0.4-1.6-0.9c-0.5-0.5-0.8-1-0.9-1.6s-0.1-1.3,0.2-1.9c0.2-0.6,0.7-1.1,1.2-1.4c0.5-0.4,1.1-0.5,1.8-0.5
		c0.9,0,1.7,0.3,2.3,0.9C170,291.3,170.3,292.1,170.3,292.9L170.3,292.9z"/>
	<path class="st4" d="M154.7,292.9c0,0.6-0.2,1.3-0.5,1.8c-0.4,0.5-0.9,0.9-1.4,1.2c-0.6,0.2-1.2,0.3-1.9,0.2s-1.2-0.4-1.6-0.9
		c-0.5-0.5-0.8-1-0.9-1.6s-0.1-1.3,0.2-1.9c0.2-0.6,0.7-1.1,1.2-1.4c0.5-0.4,1.1-0.5,1.8-0.5c0.9,0,1.7,0.3,2.3,0.9
		C154.3,291.3,154.7,292.1,154.7,292.9L154.7,292.9z"/>
	<path class="st4" d="M139,292.9c0,0.6-0.2,1.3-0.5,1.8c-0.4,0.5-0.9,0.9-1.4,1.2c-0.6,0.2-1.2,0.3-1.9,0.2
		c-0.6-0.1-1.2-0.4-1.6-0.9c-0.5-0.5-0.8-1-0.9-1.6s-0.1-1.3,0.2-1.9c0.2-0.6,0.7-1.1,1.2-1.4c0.5-0.4,1.1-0.5,1.8-0.5
		c0.9,0,1.7,0.3,2.3,0.9C138.7,291.3,139,292.1,139,292.9L139,292.9z"/>
	<path class="st4" d="M381.9,337.8c0-7.7-2.4-15.1-7-21.3c-4.5-6.2-10.9-10.8-18.2-13.1c-0.7-5.7-2.9-11.2-6.3-15.8
		c-3.4-4.6-8-8.3-13.2-10.7c-5.3-2.4-11-3.4-16.8-2.9c-5.8,0.5-11.3,2.4-16.1,5.6c-4.8-3.2-10.3-5.1-16.1-5.6
		c-5.7-0.5-11.5,0.6-16.8,2.9c-5.2,2.4-9.8,6.1-13.2,10.7c-3.4,4.6-5.6,10.1-6.3,15.8c-8.2,2.6-15.2,8-19.7,15.3
		c-4.5,7.3-6.3,16-5,24.5c1.3,8.5,5.6,16.3,12.1,21.9c6.5,5.6,14.8,8.7,23.4,8.7h84c9.4-0.2,18.3-4.1,24.9-10.8
		C378.2,356.2,381.9,347.2,381.9,337.8L381.9,337.8z"/>
	<path class="st5" d="M304,279.3c-4.8-3.1-10.3-5-16.1-5.4c-5.7-0.4-11.5,0.6-16.7,3c-5.2,2.4-9.7,6.1-13.1,10.8
		c-3.4,4.6-5.5,10.1-6.3,15.8c-8.2,2.6-15.2,8-19.7,15.3c-4.5,7.3-6.3,16-5,24.5c1.3,8.5,5.6,16.3,12.1,21.9
		c6.5,5.6,14.8,8.7,23.4,8.7H288L304,279.3z"/>
	<path class="st6" d="M362.7,413.6H246.5v8.7h116.2V413.6z"/>
	<path class="st6" d="M362.7,371.7H246.5v8.7h116.2V371.7z"/>
	<path class="st7" d="M367.9,420.1H240.8c-3.3,0-6,2.7-6,6V453c0,3.3,2.7,6,6,6h127.1c3.3,0,6-2.7,6-6v-26.9
		C373.9,422.8,371.2,420.1,367.9,420.1z"/>
	<path class="st8" d="M292.5,420.1l-6.3,38.9h-45.4c-1.6,0-3.1-0.6-4.2-1.8c-1.1-1.1-1.7-2.6-1.7-4.2v-26.9c0-1.6,0.6-3.1,1.7-4.2
		c1.1-1.1,2.6-1.8,4.2-1.8H292.5z"/>
	<path class="st6" d="M365.3,450.5v-21.8h-122v21.8H365.3z"/>
	<path class="st4" d="M355.7,439.6c0,0.7-0.2,1.5-0.7,2.1c-0.4,0.6-1,1.1-1.7,1.4c-0.7,0.3-1.4,0.3-2.2,0.2c-0.7-0.2-1.4-0.5-1.9-1
		c-0.5-0.5-0.9-1.2-1-1.9c-0.1-0.7-0.1-1.5,0.2-2.2c0.3-0.7,0.8-1.3,1.4-1.7c0.6-0.4,1.3-0.6,2.1-0.6c0.5,0,1,0.1,1.4,0.3
		c0.5,0.2,0.9,0.5,1.2,0.8c0.3,0.4,0.6,0.8,0.8,1.2C355.6,438.6,355.7,439.1,355.7,439.6z"/>
	<path class="st4" d="M339.5,439.6c0,0.6-0.2,1.3-0.5,1.8c-0.4,0.5-0.9,0.9-1.4,1.2c-0.6,0.2-1.2,0.3-1.9,0.2
		c-0.6-0.1-1.2-0.4-1.6-0.9c-0.4-0.4-0.8-1-0.9-1.6s-0.1-1.3,0.2-1.9c0.2-0.6,0.7-1.1,1.2-1.4c0.5-0.4,1.1-0.5,1.8-0.5
		c0.9,0,1.7,0.3,2.3,0.9C339.2,437.9,339.5,438.7,339.5,439.6L339.5,439.6z"/>
	<path class="st3" d="M323.9,439.6c0,0.6-0.2,1.3-0.5,1.8c-0.4,0.5-0.9,0.9-1.4,1.2c-0.6,0.2-1.2,0.3-1.9,0.2
		c-0.6-0.1-1.2-0.4-1.6-0.9c-0.4-0.4-0.8-1-0.9-1.6c-0.1-0.6-0.1-1.3,0.2-1.9c0.2-0.6,0.7-1.1,1.2-1.4c0.5-0.4,1.1-0.5,1.8-0.5
		c0.9,0,1.7,0.3,2.3,0.9C323.5,437.9,323.9,438.7,323.9,439.6L323.9,439.6z"/>
	<path class="st4" d="M308.2,439.6c0,0.6-0.2,1.3-0.5,1.8c-0.4,0.5-0.9,0.9-1.4,1.2c-0.6,0.2-1.2,0.3-1.9,0.2
		c-0.6-0.1-1.2-0.4-1.6-0.9c-0.4-0.4-0.8-1-0.9-1.6s-0.1-1.3,0.2-1.9c0.2-0.6,0.7-1.1,1.2-1.4c0.5-0.4,1.1-0.5,1.8-0.5
		c0.9,0,1.7,0.3,2.3,0.9C307.9,437.9,308.2,438.7,308.2,439.6L308.2,439.6z"/>
	<path class="st3" d="M292.5,439.6c0,0.6-0.2,1.3-0.5,1.8c-0.4,0.5-0.9,0.9-1.4,1.2c-0.6,0.2-1.2,0.3-1.9,0.2
		c-0.6-0.1-1.2-0.4-1.6-0.9c-0.4-0.4-0.8-1-0.9-1.6c-0.1-0.6-0.1-1.3,0.2-1.9c0.2-0.6,0.7-1.1,1.2-1.4c0.5-0.4,1.1-0.5,1.8-0.5
		c0.9,0,1.7,0.3,2.3,0.9C292.2,437.9,292.5,438.7,292.5,439.6L292.5,439.6z"/>
	<path class="st7" d="M367.9,377.5H240.8c-3.3,0-6,2.7-6,6v26.9c0,3.3,2.7,6,6,6h127.1c3.3,0,6-2.7,6-6v-26.9
		C373.9,380.2,371.2,377.5,367.9,377.5z"/>
	<path class="st8" d="M299.4,377.5l-6.3,38.9h-52.3c-1.6,0-3.1-0.6-4.2-1.8c-1.1-1.1-1.7-2.6-1.7-4.2v-26.9c0-1.6,0.6-3.1,1.7-4.2
		c1.1-1.1,2.6-1.8,4.2-1.8H299.4z"/>
	<path class="st6" d="M365.3,407.8v-21.8h-122v21.8H365.3z"/>
	<path class="st7" d="M367.9,335.6H240.8c-3.3,0-6,2.7-6,6v26.9c0,3.3,2.7,6,6,6h127.1c3.3,0,6-2.7,6-6v-26.9
		C373.9,338.3,371.2,335.6,367.9,335.6z"/>
	<path class="st8" d="M306.3,335.6l-6.3,38.9h-59.2c-1.6,0-3.1-0.6-4.2-1.8c-1.1-1.1-1.7-2.6-1.7-4.2v-26.9c0-1.6,0.6-3.1,1.7-4.2
		c1.1-1.1,2.6-1.8,4.2-1.8H306.3z"/>
	<path class="st6" d="M365.3,365.9v-21.8h-122v21.8H365.3z"/>
	<path class="st4" d="M355.7,396.9c0,0.7-0.2,1.5-0.6,2.1c-0.4,0.6-1,1.1-1.7,1.4c-0.7,0.3-1.4,0.4-2.2,0.2c-0.7-0.1-1.4-0.5-1.9-1
		c-0.5-0.5-0.9-1.2-1-1.9c-0.1-0.7-0.1-1.5,0.2-2.2c0.3-0.7,0.8-1.3,1.4-1.7c0.6-0.4,1.3-0.6,2.1-0.6c0.5,0,1,0.1,1.4,0.3
		c0.5,0.2,0.9,0.5,1.2,0.8c0.3,0.3,0.6,0.8,0.8,1.2C355.6,395.9,355.7,396.4,355.7,396.9z"/>
	<path class="st4" d="M339.5,396.9c0,0.6-0.2,1.3-0.5,1.8c-0.4,0.5-0.9,0.9-1.4,1.2c-0.6,0.2-1.2,0.3-1.9,0.2
		c-0.6-0.1-1.2-0.4-1.6-0.9c-0.4-0.4-0.8-1-0.9-1.6c-0.1-0.6-0.1-1.3,0.2-1.9c0.2-0.6,0.7-1.1,1.2-1.4c0.5-0.4,1.1-0.5,1.8-0.5
		c0.9,0,1.7,0.3,2.3,0.9C339.2,395.2,339.5,396,339.5,396.9L339.5,396.9z"/>
	<path class="st3" d="M323.9,396.9c0,0.6-0.2,1.3-0.5,1.8c-0.4,0.5-0.9,0.9-1.4,1.2c-0.6,0.2-1.2,0.3-1.9,0.2
		c-0.6-0.1-1.2-0.4-1.6-0.9c-0.4-0.4-0.8-1-0.9-1.6c-0.1-0.6-0.1-1.3,0.2-1.9c0.2-0.6,0.7-1.1,1.2-1.4c0.5-0.4,1.1-0.5,1.8-0.5
		c0.9,0,1.7,0.3,2.3,0.9C323.5,395.2,323.9,396,323.9,396.9L323.9,396.9z"/>
	<path class="st4" d="M308.2,396.9c0,0.6-0.2,1.3-0.5,1.8c-0.4,0.5-0.9,0.9-1.4,1.2c-0.6,0.2-1.2,0.3-1.9,0.2
		c-0.6-0.1-1.2-0.4-1.6-0.9c-0.4-0.4-0.8-1-0.9-1.6c-0.1-0.6-0.1-1.3,0.2-1.9c0.2-0.6,0.7-1.1,1.2-1.4c0.5-0.4,1.1-0.5,1.8-0.5
		c0.9,0,1.7,0.3,2.3,0.9C307.9,395.2,308.2,396,308.2,396.9L308.2,396.9z"/>
	<path class="st3" d="M292.5,396.9c0,0.6-0.2,1.3-0.5,1.8c-0.4,0.5-0.9,0.9-1.4,1.2c-0.6,0.2-1.2,0.3-1.9,0.2
		c-0.6-0.1-1.2-0.4-1.6-0.9c-0.4-0.4-0.8-1-0.9-1.6c-0.1-0.6-0.1-1.3,0.2-1.9c0.2-0.6,0.7-1.1,1.2-1.4c0.5-0.4,1.1-0.5,1.8-0.5
		c0.9,0,1.7,0.3,2.3,0.9C292.2,395.2,292.5,396,292.5,396.9L292.5,396.9z"/>
	<path class="st4" d="M355.7,355.1c0,0.7-0.2,1.5-0.6,2.1c-0.4,0.6-1,1.1-1.7,1.4c-0.7,0.3-1.4,0.4-2.2,0.2c-0.7-0.1-1.4-0.5-1.9-1
		c-0.5-0.5-0.9-1.2-1-1.9c-0.1-0.7-0.1-1.5,0.2-2.2c0.3-0.7,0.8-1.3,1.4-1.7c0.6-0.4,1.3-0.6,2.1-0.6c1,0,1.9,0.4,2.7,1.1
		C355.3,353.1,355.7,354.1,355.7,355.1z"/>
	<path class="st3" d="M339.5,355.1c0,0.6-0.2,1.3-0.5,1.8c-0.4,0.5-0.9,0.9-1.4,1.2c-0.6,0.2-1.2,0.3-1.9,0.2s-1.2-0.4-1.6-0.9
		c-0.4-0.4-0.8-1-0.9-1.6s-0.1-1.3,0.2-1.9c0.2-0.6,0.7-1.1,1.2-1.4c0.5-0.4,1.1-0.5,1.8-0.5c0.9,0,1.7,0.3,2.3,0.9
		C339.2,353.4,339.5,354.2,339.5,355.1L339.5,355.1z"/>
	<path class="st3" d="M323.9,355.1c0,0.6-0.2,1.3-0.5,1.8c-0.4,0.5-0.9,0.9-1.4,1.2c-0.6,0.2-1.2,0.3-1.9,0.2
		c-0.6-0.1-1.2-0.4-1.6-0.9c-0.4-0.4-0.8-1-0.9-1.6c-0.1-0.6-0.1-1.3,0.2-1.9c0.2-0.6,0.7-1.1,1.2-1.4c0.5-0.4,1.1-0.5,1.8-0.5
		c0.9,0,1.7,0.3,2.3,0.9C323.5,353.4,323.9,354.2,323.9,355.1L323.9,355.1z"/>
	<path class="st4" d="M308.2,355.1c0,0.6-0.2,1.3-0.5,1.8c-0.4,0.5-0.9,0.9-1.4,1.2c-0.6,0.2-1.2,0.3-1.9,0.2
		c-0.6-0.1-1.2-0.4-1.6-0.9c-0.4-0.4-0.8-1-0.9-1.6s-0.1-1.3,0.2-1.9c0.2-0.6,0.7-1.1,1.2-1.4c0.5-0.4,1.1-0.5,1.8-0.5
		c0.9,0,1.7,0.3,2.3,0.9C307.9,353.4,308.2,354.2,308.2,355.1L308.2,355.1z"/>
	<path class="st4" d="M292.5,355.1c0,0.6-0.2,1.3-0.5,1.8c-0.4,0.5-0.9,0.9-1.4,1.2c-0.6,0.2-1.2,0.3-1.9,0.2
		c-0.6-0.1-1.2-0.4-1.6-0.9c-0.4-0.4-0.8-1-0.9-1.6c-0.1-0.6-0.1-1.3,0.2-1.9c0.2-0.6,0.7-1.1,1.2-1.4c0.5-0.4,1.1-0.5,1.8-0.5
		c0.9,0,1.7,0.3,2.3,0.9C292.2,353.4,292.5,354.2,292.5,355.1L292.5,355.1z"/>
	<path class="st4" d="M600,328.2c0-9.7-3.1-19.1-8.8-27c-5.7-7.8-13.8-13.6-23-16.5c-0.9-7.3-3.7-14.2-8-20.1
		c-4.3-5.9-10.1-10.6-16.7-13.6c-6.6-3-14-4.3-21.3-3.7c-7.3,0.6-14.3,3-20.4,7.1c-6.1-4.1-13.1-6.5-20.4-7.1
		c-7.3-0.6-14.6,0.7-21.3,3.7c-6.6,3-12.4,7.7-16.7,13.6c-4.3,5.9-7.1,12.8-8,20.1c-10.4,3.3-19.2,10.2-25,19.4
		c-5.7,9.2-8,20.2-6.3,31c1.7,10.8,7.1,20.6,15.4,27.7c8.3,7.1,18.8,11,29.6,11h106.4c11.9-0.3,23.2-5.2,31.6-13.7
		C595.3,351.5,600,340.1,600,328.2L600,328.2z"/>
	<path class="st5" d="M501.4,254.1c-6.1-4-13.1-6.3-20.3-6.9c-7.3-0.5-14.5,0.8-21.1,3.9c-6.6,3.1-12.3,7.7-16.6,13.6
		c-4.3,5.9-7,12.7-7.9,20c-10.4,3.3-19.2,10.2-25,19.4c-5.7,9.2-8,20.2-6.3,31c1.7,10.8,7.1,20.6,15.4,27.7c8.3,7.1,18.8,11,29.6,11
		h32L501.4,254.1z"/>
	<path class="st6" d="M516.2,351.5H400v8.7h116.2V351.5z"/>
	<path class="st6" d="M516.2,309.6H400v8.7h116.2V309.6z"/>
	<path class="st7" d="M521.4,358H394.3c-3.3,0-6,2.7-6,6v26.9c0,3.3,2.7,6,6,6h127.1c3.3,0,6-2.7,6-6V364
		C527.4,360.7,524.7,358,521.4,358z"/>
	<path class="st8" d="M446.1,358l-6.3,38.9h-45.4c-1.6,0-3.1-0.6-4.2-1.8c-1.1-1.1-1.7-2.6-1.7-4.2V364c0-1.6,0.6-3.1,1.7-4.2
		c1.1-1.1,2.6-1.8,4.2-1.8H446.1z"/>
	<path class="st6" d="M518.9,388.4v-21.8h-122v21.8H518.9z"/>
	<path class="st4" d="M509.2,377.5c0,0.7-0.2,1.5-0.6,2.1c-0.4,0.6-1,1.1-1.7,1.4c-0.7,0.3-1.4,0.4-2.2,0.2c-0.7-0.1-1.4-0.5-1.9-1
		c-0.5-0.5-0.9-1.2-1-1.9c-0.1-0.7-0.1-1.5,0.2-2.2c0.3-0.7,0.8-1.3,1.4-1.7c0.6-0.4,1.3-0.6,2.1-0.6c1,0,1.9,0.4,2.6,1.1
		C508.8,375.5,509.2,376.5,509.2,377.5z"/>
	<path class="st4" d="M489.8,380.7c1.8,0,3.2-1.4,3.2-3.2s-1.4-3.2-3.2-3.2c-1.8,0-3.2,1.4-3.2,3.2S488.1,380.7,489.8,380.7z"/>
	<path class="st3" d="M477.4,377.5c0,0.6-0.2,1.3-0.5,1.8c-0.4,0.5-0.9,0.9-1.4,1.2c-0.6,0.2-1.2,0.3-1.9,0.2
		c-0.6-0.1-1.2-0.4-1.6-0.9c-0.4-0.4-0.8-1-0.9-1.6c-0.1-0.6-0.1-1.3,0.2-1.9c0.2-0.6,0.7-1.1,1.2-1.4c0.5-0.4,1.1-0.5,1.8-0.5
		c0.9,0,1.7,0.3,2.3,0.9C477.1,375.8,477.4,376.6,477.4,377.5L477.4,377.5z"/>
	<path class="st4" d="M461.7,377.5c0,0.6-0.2,1.3-0.5,1.8c-0.4,0.5-0.9,0.9-1.4,1.2c-0.6,0.2-1.2,0.3-1.9,0.2
		c-0.6-0.1-1.2-0.4-1.6-0.9c-0.4-0.4-0.8-1-0.9-1.6c-0.1-0.6-0.1-1.3,0.2-1.9c0.2-0.6,0.7-1.1,1.2-1.4c0.5-0.4,1.1-0.5,1.8-0.5
		c0.9,0,1.7,0.3,2.3,0.9C461.4,375.8,461.7,376.6,461.7,377.5L461.7,377.5z"/>
	<path class="st3" d="M446.1,377.5c0,0.6-0.2,1.3-0.5,1.8c-0.4,0.5-0.9,0.9-1.4,1.2c-0.6,0.2-1.2,0.3-1.9,0.2
		c-0.6-0.1-1.2-0.4-1.6-0.9c-0.4-0.4-0.8-1-0.9-1.6c-0.1-0.6-0.1-1.3,0.2-1.9c0.2-0.6,0.7-1.1,1.2-1.4c0.5-0.4,1.1-0.5,1.8-0.5
		c0.9,0,1.7,0.3,2.3,0.9C445.8,375.8,446.1,376.6,446.1,377.5L446.1,377.5z"/>
	<path class="st7" d="M521.4,315.4H394.3c-3.3,0-6,2.7-6,6v26.9c0,3.3,2.7,6,6,6h127.1c3.3,0,6-2.7,6-6v-26.9
		C527.4,318.1,524.7,315.4,521.4,315.4z"/>
	<path class="st8" d="M453,315.4l-6.3,38.9h-52.3c-1.6,0-3.1-0.6-4.2-1.8c-1.1-1.1-1.7-2.6-1.7-4.2v-26.9c0-1.6,0.6-3.1,1.7-4.2
		c1.1-1.1,2.6-1.8,4.2-1.8H453z"/>
	<path class="st6" d="M518.9,345.8V324h-122v21.8H518.9z"/>
	<path class="st7" d="M521.4,273.5H394.3c-3.3,0-6,2.7-6,6v26.9c0,3.3,2.7,6,6,6h127.1c3.3,0,6-2.7,6-6v-26.9
		C527.4,276.2,524.7,273.5,521.4,273.5z"/>
	<path class="st8" d="M459.8,273.5l-6.3,38.9h-59.1c-1.6,0-3.1-0.6-4.2-1.8c-1.1-1.1-1.7-2.6-1.7-4.2v-26.9c0-1.6,0.6-3.1,1.7-4.2
		c1.1-1.1,2.6-1.8,4.2-1.8H459.8z"/>
	<path class="st6" d="M518.9,303.8v-21.8h-122v21.8H518.9z"/>
	<path class="st4" d="M509.2,334.9c0,0.7-0.2,1.5-0.6,2.1c-0.4,0.6-1,1.1-1.7,1.4c-0.7,0.3-1.4,0.4-2.2,0.2c-0.7-0.1-1.4-0.5-1.9-1
		c-0.5-0.5-0.9-1.2-1-1.9c-0.1-0.7-0.1-1.5,0.2-2.2c0.3-0.7,0.8-1.3,1.4-1.7c0.6-0.4,1.3-0.6,2.1-0.6c1,0,1.9,0.4,2.7,1.1
		C508.8,332.9,509.2,333.9,509.2,334.9L509.2,334.9z"/>
	<path class="st4" d="M493,334.9c0,0.6-0.2,1.3-0.5,1.8c-0.4,0.5-0.9,0.9-1.4,1.2c-0.6,0.2-1.2,0.3-1.9,0.2
		c-0.6-0.1-1.2-0.4-1.6-0.9c-0.4-0.5-0.8-1-0.9-1.6c-0.1-0.6-0.1-1.3,0.2-1.9c0.2-0.6,0.7-1.1,1.2-1.4c0.5-0.4,1.1-0.5,1.8-0.5
		c0.9,0,1.7,0.3,2.3,0.9C492.7,333.2,493,334,493,334.9L493,334.9z"/>
	<path class="st3" d="M477.4,334.9c0,0.6-0.2,1.3-0.5,1.8c-0.4,0.5-0.9,0.9-1.4,1.2c-0.6,0.2-1.2,0.3-1.9,0.2
		c-0.6-0.1-1.2-0.4-1.6-0.9c-0.4-0.5-0.8-1-0.9-1.6c-0.1-0.6-0.1-1.3,0.2-1.9c0.2-0.6,0.7-1.1,1.2-1.4c0.5-0.4,1.1-0.5,1.8-0.5
		c0.9,0,1.7,0.3,2.3,0.9C477.1,333.2,477.4,334,477.4,334.9L477.4,334.9z"/>
	<path class="st4" d="M461.7,334.9c0,0.6-0.2,1.3-0.5,1.8c-0.4,0.5-0.9,0.9-1.4,1.2c-0.6,0.2-1.2,0.3-1.9,0.2
		c-0.6-0.1-1.2-0.4-1.6-0.9c-0.4-0.5-0.8-1-0.9-1.6c-0.1-0.6-0.1-1.3,0.2-1.9s0.7-1.1,1.2-1.4c0.5-0.4,1.1-0.5,1.8-0.5
		c0.9,0,1.7,0.3,2.3,0.9C461.4,333.2,461.7,334,461.7,334.9L461.7,334.9z"/>
	<path class="st3" d="M446.1,334.9c0,0.6-0.2,1.3-0.5,1.8c-0.4,0.5-0.9,0.9-1.4,1.2c-0.6,0.2-1.2,0.3-1.9,0.2
		c-0.6-0.1-1.2-0.4-1.6-0.9c-0.4-0.5-0.8-1-0.9-1.6c-0.1-0.6-0.1-1.3,0.2-1.9c0.2-0.6,0.7-1.1,1.2-1.4c0.5-0.4,1.1-0.5,1.8-0.5
		c0.9,0,1.7,0.3,2.3,0.9C445.8,333.2,446.1,334,446.1,334.9L446.1,334.9z"/>
	<path class="st4" d="M509.2,292.9c0,0.7-0.2,1.5-0.6,2.1c-0.4,0.6-1,1.1-1.7,1.4c-0.7,0.3-1.4,0.4-2.2,0.2c-0.7-0.1-1.4-0.5-1.9-1
		c-0.5-0.5-0.9-1.2-1-1.9c-0.1-0.7-0.1-1.5,0.2-2.2c0.3-0.7,0.8-1.3,1.4-1.7c0.6-0.4,1.3-0.6,2.1-0.6c0.5,0,1,0.1,1.4,0.3
		c0.5,0.2,0.9,0.5,1.2,0.8c0.3,0.3,0.6,0.8,0.8,1.2C509.1,292,509.2,292.5,509.2,292.9z"/>
	<path class="st3" d="M493,292.9c0,0.6-0.2,1.3-0.5,1.8c-0.4,0.5-0.9,0.9-1.4,1.2c-0.6,0.2-1.2,0.3-1.9,0.2
		c-0.6-0.1-1.2-0.4-1.6-0.9c-0.4-0.5-0.8-1-0.9-1.6c-0.1-0.6-0.1-1.3,0.2-1.9c0.2-0.6,0.7-1.1,1.2-1.4c0.5-0.4,1.1-0.5,1.8-0.5
		c0.9,0,1.7,0.3,2.3,0.9C492.7,291.3,493,292.1,493,292.9L493,292.9z"/>
	<path class="st3" d="M477.4,292.9c0,0.6-0.2,1.3-0.5,1.8c-0.4,0.5-0.9,0.9-1.4,1.2c-0.6,0.2-1.2,0.3-1.9,0.2
		c-0.6-0.1-1.2-0.4-1.6-0.9c-0.4-0.5-0.8-1-0.9-1.6c-0.1-0.6-0.1-1.3,0.2-1.9c0.2-0.6,0.7-1.1,1.2-1.4c0.5-0.4,1.1-0.5,1.8-0.5
		c0.9,0,1.7,0.3,2.3,0.9C477.1,291.3,477.4,292.1,477.4,292.9L477.4,292.9z"/>
	<path class="st4" d="M461.7,292.9c0,0.6-0.2,1.3-0.5,1.8c-0.4,0.5-0.9,0.9-1.4,1.2c-0.6,0.2-1.2,0.3-1.9,0.2
		c-0.6-0.1-1.2-0.4-1.6-0.9c-0.4-0.5-0.8-1-0.9-1.6c-0.1-0.6-0.1-1.3,0.2-1.9c0.2-0.6,0.7-1.1,1.2-1.4c0.5-0.4,1.1-0.5,1.8-0.5
		c0.9,0,1.7,0.3,2.3,0.9C461.4,291.3,461.7,292.1,461.7,292.9L461.7,292.9z"/>
	<path class="st4" d="M446.1,292.9c0,0.6-0.2,1.3-0.5,1.8c-0.4,0.5-0.9,0.9-1.4,1.2c-0.6,0.2-1.2,0.3-1.9,0.2
		c-0.6-0.1-1.2-0.4-1.6-0.9c-0.4-0.5-0.8-1-0.9-1.6c-0.1-0.6-0.1-1.3,0.2-1.9c0.2-0.6,0.7-1.1,1.2-1.4c0.5-0.4,1.1-0.5,1.8-0.5
		c0.9,0,1.7,0.3,2.3,0.9C445.8,291.3,446.1,292.1,446.1,292.9L446.1,292.9z"/>
	<path class="st5" d="M202.9,18.4h203c3.5,0,6.8,1.4,9.3,3.9c2.5,2.5,3.9,5.8,3.9,9.3v121.7c0,4.2-1.7,8.2-4.6,11.1
		c-2.9,2.9-6.9,4.6-11.1,4.6H205.4c-2.1,0-4.1-0.4-6-1.2c-1.9-0.8-3.6-1.9-5.1-3.4c-1.5-1.5-2.6-3.2-3.4-5.1c-0.8-1.9-1.2-4-1.2-6
		V31.5c0-1.7,0.3-3.5,1-5.1c0.7-1.6,1.6-3.1,2.9-4.3c1.2-1.2,2.7-2.2,4.3-2.8C199.4,18.7,201.1,18.4,202.9,18.4L202.9,18.4z"/>
	<path class="st9" d="M302.3,18.4h-99.4c-1.7,0-3.4,0.3-5,1c-1.6,0.7-3,1.6-4.3,2.9c-1.2,1.2-2.2,2.7-2.9,4.3c-0.7,1.6-1,3.3-1,5
		v121.7c0,4.2,1.7,8.1,4.6,11.1c2.9,2.9,6.9,4.6,11.1,4.6h66.6L302.3,18.4z"/>
	<path class="st7" d="M189.6,43.1H419v137.4c0,3.5-1.4,6.8-3.9,9.3c-2.5,2.5-5.8,3.9-9.3,3.9h-203c-1.7,0-3.5-0.3-5.1-1
		c-1.6-0.7-3.1-1.6-4.3-2.8c-1.2-1.2-2.2-2.7-2.9-4.3c-0.7-1.6-1-3.3-1-5.1V43.1z"/>
	<path class="st10" d="M412.7,43.1v137.4c0,0.9-0.2,1.8-0.5,2.7c-0.3,0.8-0.9,1.6-1.5,2.3c-0.6,0.6-1.4,1.2-2.3,1.5
		c-0.8,0.3-1.7,0.5-2.7,0.5H202.8c-0.9,0-1.8-0.2-2.7-0.5c-0.8-0.3-1.6-0.9-2.3-1.5c-0.6-0.6-1.2-1.4-1.5-2.3
		c-0.3-0.8-0.5-1.8-0.5-2.7V43.1H412.7z"/>
	<path class="st11" d="M345.1,144.3v-13.4l-9.3-1.3c-0.7-3-1.9-5.9-3.5-8.5l5.6-7.5l-9.5-9.6l-7.5,5.6c-2.6-1.6-5.5-2.8-8.5-3.5
		l-1.3-9.2h-13.4l-1.3,9.2c-3,0.7-5.9,1.9-8.5,3.5l-7.5-5.6l-9.6,9.6l5.6,7.5c-1.6,2.6-2.8,5.5-3.5,8.5l-9.2,1.3v13.4l9.2,1.3
		c0.7,3,1.9,5.9,3.5,8.6l-5.6,7.5l9.6,9.5l7.5-5.6c2.6,1.7,5.5,2.9,8.5,3.6l1.3,9.2h13.4l1.3-9.2c3-0.7,5.9-1.9,8.5-3.6l7.5,5.6
		l9.5-9.5l-5.6-7.5c1.6-2.6,2.8-5.5,3.5-8.5L345.1,144.3z M304.3,158c-4,0-8-1.2-11.3-3.4c-3.4-2.2-6-5.4-7.5-9.2
		c-1.5-3.7-1.9-7.8-1.2-11.8c0.8-4,2.7-7.6,5.6-10.4c2.9-2.9,6.5-4.8,10.4-5.6c4-0.8,8.1-0.4,11.8,1.2c3.7,1.5,6.9,4.2,9.1,7.5
		c2.2,3.4,3.4,7.3,3.4,11.3c0,2.7-0.5,5.3-1.6,7.8c-1,2.5-2.5,4.7-4.4,6.6s-4.1,3.4-6.6,4.4C309.6,157.4,307,158,304.3,158
		L304.3,158z"/>
	<path class="st6" d="M304.3,158c-5.4,0-10.6-2.1-14.4-6c-3.8-3.8-6-9-6-14.4s2.1-10.6,6-14.4c3.8-3.8,9-6,14.4-6V96.8h-6.7
		l-1.3,9.2c-3,0.7-5.9,1.9-8.5,3.5l-7.5-5.6l-9.6,9.6l5.6,7.5c-1.6,2.6-2.8,5.5-3.5,8.5l-9.2,1.3v13.4l9.2,1.3
		c0.7,3,1.9,5.9,3.5,8.6l-5.6,7.5l9.6,9.5l7.5-5.6c2.6,1.7,5.5,2.9,8.5,3.6l1.3,9.2h6.7V158z"/>
	<path class="st12" d="M395.1,89.9v-9.6l-6.6-0.9c-0.5-2.1-1.3-4.2-2.5-6.1l4-5.3l-6.8-6.8l-5.3,4c-1.9-1.2-3.9-2-6.1-2.5l-0.9-6.6
		h-9.7l-0.9,6.6c-2.1,0.5-4.2,1.4-6.1,2.5l-5.3-4l-6.8,6.8l4,5.3c-1.2,1.9-2,3.9-2.5,6.1l-6.6,0.9v9.6l6.6,0.9
		c0.5,2.2,1.3,4.2,2.5,6.1l-4,5.3l6.8,6.8l5.3-4c1.9,1.2,3.9,2,6.1,2.5l0.9,6.6h9.6l0.9-6.6c2.1-0.5,4.2-1.4,6.1-2.5l5.3,4l6.8-6.8
		l-4-5.3c1.1-1.9,2-3.9,2.5-6.1L395.1,89.9z M366.1,99.6c-2.9,0-5.7-0.8-8.1-2.4c-2.4-1.6-4.3-3.9-5.4-6.5c-1.1-2.7-1.4-5.6-0.8-8.4
		c0.6-2.8,1.9-5.4,4-7.4c2-2,4.6-3.4,7.4-4c2.8-0.6,5.7-0.3,8.4,0.8c2.7,1.1,4.9,3,6.5,5.4c1.6,2.4,2.4,5.2,2.4,8.1
		c0,1.9-0.4,3.8-1.1,5.6c-0.7,1.8-1.8,3.4-3.1,4.7c-1.3,1.4-3,2.4-4.7,3.1C369.9,99.3,368,99.6,366.1,99.6L366.1,99.6z"/>
	<path class="st7" d="M276.1,50.7h-72.4v6h72.4V50.7z"/>
	<path class="st7" d="M276.1,65h-72.4v6h72.4V65z"/>
	<path class="st7" d="M276.1,79.2h-72.4v6h72.4V79.2z"/>
	<path class="st7" d="M260.4,93.4h-56.7v6h56.7V93.4z"/>
	<path class="st7" d="M260.4,107.6h-56.7v6h56.7V107.6z"/>
	<path class="st3" d="M364.7,31c0,1-0.3,2-0.8,2.8c-0.6,0.8-1.3,1.5-2.3,1.9c-0.9,0.4-1.9,0.5-2.9,0.3c-1-0.2-1.9-0.7-2.6-1.4
		c-0.7-0.7-1.2-1.6-1.4-2.6c-0.2-1-0.1-2,0.3-2.9s1-1.7,1.9-2.3c0.8-0.6,1.8-0.9,2.8-0.9c0.7,0,1.3,0.1,1.9,0.4
		c0.6,0.3,1.2,0.6,1.6,1.1c0.5,0.5,0.8,1,1.1,1.6C364.6,29.7,364.7,30.3,364.7,31L364.7,31z"/>
	<path class="st3" d="M385.3,31c0,1-0.3,2-0.9,2.8c-0.6,0.8-1.3,1.5-2.3,1.9c-0.9,0.4-1.9,0.5-2.9,0.3c-1-0.2-1.9-0.7-2.6-1.4
		c-0.7-0.7-1.2-1.6-1.4-2.6c-0.2-1-0.1-2,0.3-2.9c0.4-0.9,1-1.7,1.9-2.3c0.8-0.6,1.8-0.9,2.8-0.9c1.3,0,2.6,0.5,3.6,1.5
		C384.8,28.4,385.3,29.6,385.3,31z"/>
	<path class="st3" d="M406,31c0,1-0.3,2-0.9,2.8c-0.6,0.8-1.3,1.5-2.3,1.9c-0.9,0.4-1.9,0.5-2.9,0.3c-1-0.2-1.9-0.7-2.6-1.4
		c-0.7-0.7-1.2-1.6-1.4-2.6c-0.2-1-0.1-2,0.3-2.9c0.4-0.9,1-1.7,1.9-2.3c0.8-0.6,1.8-0.9,2.8-0.9c1.3,0,2.6,0.5,3.6,1.5
		C405.5,28.4,406,29.6,406,31z"/>
	<path class="st4" d="M353.3,172c0,0.8-0.2,1.6-0.7,2.2c-0.4,0.7-1.1,1.2-1.8,1.5c-0.7,0.3-1.5,0.4-2.3,0.2
		c-0.8-0.2-1.5-0.5-2.1-1.1c-0.6-0.6-0.9-1.3-1.1-2.1c-0.2-0.8-0.1-1.6,0.2-2.3c0.3-0.7,0.8-1.4,1.5-1.8c0.7-0.4,1.4-0.7,2.2-0.7
		c1.1,0,2.1,0.4,2.9,1.2C352.9,169.9,353.3,170.9,353.3,172z"/>
	<path class="st4" d="M370.7,172c0,0.8-0.2,1.6-0.7,2.3c-0.4,0.7-1.1,1.2-1.8,1.5c-0.7,0.3-1.6,0.4-2.3,0.2
		c-0.8-0.2-1.5-0.5-2.1-1.1c-0.6-0.6-1-1.3-1.1-2.1c-0.2-0.8-0.1-1.6,0.2-2.3c0.3-0.7,0.8-1.4,1.5-1.8c0.7-0.4,1.4-0.7,2.3-0.7
		c1.1,0,2.1,0.4,2.9,1.2C370.3,169.9,370.7,170.9,370.7,172L370.7,172z"/>
	<path class="st4" d="M389.8,172c0,1.1-0.3,2.2-1,3.2c-0.6,0.9-1.5,1.7-2.6,2.1c-1,0.4-2.2,0.5-3.3,0.3c-1.1-0.2-2.1-0.8-2.9-1.6
		c-0.8-0.8-1.3-1.8-1.6-2.9c-0.2-1.1-0.1-2.3,0.3-3.3c0.4-1,1.2-1.9,2.1-2.6c0.9-0.6,2-1,3.2-1c1.5,0,3,0.6,4,1.7
		C389.2,169,389.8,170.5,389.8,172L389.8,172z"/>
	<path class="st4" d="M405.6,172c0,0.8-0.2,1.6-0.7,2.3c-0.4,0.7-1.1,1.2-1.8,1.5c-0.7,0.3-1.6,0.4-2.3,0.2
		c-0.8-0.2-1.5-0.5-2.1-1.1c-0.6-0.6-1-1.3-1.1-2.1c-0.2-0.8-0.1-1.6,0.2-2.3c0.3-0.7,0.8-1.4,1.5-1.8c0.7-0.4,1.4-0.7,2.3-0.7
		c1.1,0,2.1,0.4,2.9,1.2C405.2,169.9,405.6,170.9,405.6,172L405.6,172z"/>
	<path class="st4" d="M211.1,172c0,0.8-0.2,1.6-0.7,2.3c-0.4,0.7-1.1,1.2-1.8,1.5c-0.7,0.3-1.6,0.4-2.3,0.2
		c-0.8-0.2-1.5-0.5-2.1-1.1c-0.6-0.6-1-1.3-1.1-2.1c-0.2-0.8-0.1-1.6,0.2-2.3c0.3-0.7,0.8-1.4,1.5-1.8c0.7-0.4,1.4-0.7,2.3-0.7
		c1.1,0,2.1,0.4,2.9,1.2C210.7,169.9,211.1,170.9,211.1,172L211.1,172z"/>
	<path class="st4" d="M228.6,172c0,0.8-0.2,1.6-0.7,2.2c-0.4,0.7-1.1,1.2-1.8,1.5c-0.7,0.3-1.5,0.4-2.3,0.2
		c-0.8-0.2-1.5-0.5-2.1-1.1c-0.6-0.6-0.9-1.3-1.1-2.1c-0.2-0.8-0.1-1.6,0.2-2.3c0.3-0.7,0.8-1.4,1.5-1.8c0.7-0.4,1.4-0.7,2.2-0.7
		c1.1,0,2.1,0.4,2.9,1.2C228.1,169.9,228.6,170.9,228.6,172L228.6,172z"/>
	<path class="st4" d="M246,172c0,0.8-0.2,1.6-0.7,2.2c-0.4,0.7-1.1,1.2-1.8,1.5c-0.7,0.3-1.5,0.4-2.3,0.2c-0.8-0.2-1.5-0.5-2.1-1.1
		c-0.6-0.6-0.9-1.3-1.1-2.1c-0.2-0.8-0.1-1.6,0.2-2.3c0.3-0.7,0.8-1.4,1.5-1.8c0.7-0.4,1.4-0.7,2.2-0.7c1.1,0,2.1,0.4,2.9,1.2
		C245.6,169.9,246,170.9,246,172z"/>
	<path class="st4" d="M263.4,172c0,0.8-0.2,1.6-0.7,2.3c-0.4,0.7-1.1,1.2-1.8,1.5c-0.7,0.3-1.6,0.4-2.3,0.2
		c-0.8-0.2-1.5-0.5-2.1-1.1c-0.6-0.6-1-1.3-1.1-2.1c-0.2-0.8-0.1-1.6,0.2-2.3c0.3-0.7,0.8-1.4,1.5-1.8c0.7-0.4,1.5-0.7,2.3-0.7
		c1.1,0,2.1,0.4,2.9,1.2C263,169.9,263.4,170.9,263.4,172z"/>
	<path class="st13" d="M175.2,57.5V46.4l-7.6-1.1c-0.6-2.5-1.5-4.8-2.9-7l4.6-6.1l-7.8-7.8l-6.2,4.6c-2.2-1.3-4.5-2.3-7-2.9
		l-1.1-7.6h-11.1l-1.1,7.6c-2.5,0.6-4.8,1.6-7,2.9l-6.1-4.6l-7.8,7.9l4.6,6.1c-1.3,2.2-2.3,4.5-2.9,7l-7.6,1.1v11.1l7.6,1.1
		c0.6,2.5,1.5,4.9,2.9,7l-4.6,6.1l7.8,7.8l6.1-4.6c2.1,1.3,4.5,2.3,7,2.9l1.1,7.6h11.1l1.1-7.6c2.5-0.6,4.8-1.6,7-2.9l6.2,4.6
		l7.8-7.8l-4.6-6.1c1.3-2.2,2.3-4.5,2.9-7L175.2,57.5z M141.8,65.8c-2.7,0-5.4-0.8-7.7-2.3c-2.3-1.5-4.1-3.7-5.1-6.2
		c-1.1-2.5-1.3-5.3-0.8-8c0.5-2.7,1.9-5.2,3.8-7.1c1.9-1.9,4.4-3.3,7.1-3.8c2.7-0.5,5.5-0.3,8,0.8c2.5,1.1,4.7,2.8,6.2,5.1
		c1.5,2.3,2.3,5,2.3,7.7c0,1.8-0.4,3.6-1.1,5.3c-0.7,1.7-1.7,3.2-3,4.5c-1.3,1.3-2.8,2.3-4.5,3C145.4,65.5,143.6,65.8,141.8,65.8
		L141.8,65.8z"/>
	<path class="st14" d="M519.6,210.5v-9.6l-6.6-0.9c-0.5-2.1-1.4-4.1-2.5-6l4-5.3l-6.8-6.8l-5.3,4c-1.8-1.1-3.9-2-6-2.5l-0.9-6.5
		h-9.6l-0.9,6.5c-2.1,0.5-4.1,1.4-6,2.5l-5.3-4l-6.8,6.8l4,5.3c-1.2,1.8-2,3.9-2.5,6l-6.6,0.9v9.6l6.6,0.9c0.5,2.1,1.3,4.2,2.5,6.1
		l-4,5.3l6.8,6.8l5.3-4c1.8,1.2,3.9,2,6,2.5l0.9,6.5h9.6l0.9-6.5c2.1-0.5,4.1-1.4,6-2.5l5.3,4l6.8-6.8l-4-5.3c1.1-1.9,2-3.9,2.5-6
		L519.6,210.5z M490.7,217.7c-2.4,0-4.7-0.7-6.6-2c-2-1.3-3.5-3.2-4.4-5.4c-0.9-2.2-1.1-4.6-0.7-6.9c0.5-2.3,1.6-4.4,3.3-6.1
		c1.7-1.7,3.8-2.8,6.1-3.3c2.3-0.5,4.7-0.2,6.9,0.7c2.2,0.9,4,2.4,5.4,4.4c1.3,2,2,4.3,2,6.6c0,3.2-1.3,6.2-3.5,8.5
		C496.9,216.4,493.8,217.7,490.7,217.7z"/>
	<path class="st13" d="M436.3,430.1v-6.4l-4.3-0.6c-0.3-1.4-0.9-2.8-1.7-4l2.6-3.5l-4.5-4.5l-3.5,2.6c-1.2-0.8-2.6-1.3-4-1.7
		l-0.6-4.3H414l-0.6,4.3c-1.4,0.3-2.8,0.9-4,1.7l-3.5-2.6l-4.5,4.5l2.6,3.5c-0.8,1.2-1.3,2.6-1.7,4l-4.3,0.6v6.3l4.3,0.6
		c0.3,1.4,0.9,2.8,1.7,4l-2.6,3.5l4.5,4.5l3.5-2.6c1.2,0.8,2.6,1.4,4,1.7l0.6,4.3h6.3l0.6-4.3c1.4-0.3,2.8-0.9,4-1.7l3.5,2.7
		l4.5-4.5l-2.6-3.5c0.8-1.2,1.3-2.6,1.7-4L436.3,430.1z M417.2,434.9c-1.6,0-3.1-0.5-4.4-1.3c-1.3-0.9-2.3-2.1-2.9-3.6
		c-0.6-1.5-0.8-3.1-0.5-4.6c0.3-1.5,1.1-3,2.2-4.1s2.5-1.9,4.1-2.2c1.5-0.3,3.1-0.1,4.6,0.5c1.5,0.6,2.7,1.6,3.6,2.9
		c0.9,1.3,1.3,2.8,1.3,4.4c0,1-0.2,2.1-0.6,3c-0.4,1-1,1.8-1.7,2.6c-0.7,0.7-1.6,1.3-2.6,1.7S418.2,434.9,417.2,434.9L417.2,434.9z"
		/>
	<path class="st14" d="M249.2,474.7c0-4.4,2.3-6.9,5.5-6.9c3.2,0,5.5,2.5,5.5,6.9c0,4.4-2.3,6.9-5.5,6.9
		C251.6,481.6,249.2,479.1,249.2,474.7z M258.3,474.7c0-3.4-1.5-5.2-3.6-5.2c-2.1,0-3.6,1.7-3.6,5.2c0,3.4,1.5,5.2,3.6,5.2
		C256.8,479.9,258.2,478.2,258.3,474.7L258.3,474.7z"/>
	<path class="st14" d="M262,474.7c0-4.4,2.3-6.9,5.5-6.9c3.2,0,5.5,2.5,5.5,6.9c0,4.4-2.3,6.9-5.5,6.9
		C264.4,481.6,262,479.1,262,474.7z M271,474.7c0-3.4-1.5-5.2-3.5-5.2s-3.6,1.7-3.6,5.2c0,3.4,1.5,5.2,3.6,5.2
		C269.5,479.9,271.1,478.2,271,474.7L271,474.7z"/>
	<path class="st14" d="M278.9,468v13.4H277v-11.8h-3V468L278.9,468z"/>
	<path class="st14" d="M281.9,474.7c0-4.4,2.3-6.9,5.5-6.9s5.5,2.5,5.5,6.9c0,4.4-2.3,6.9-5.5,6.9S281.9,479.1,281.9,474.7z
		 M290.9,474.7c0-3.4-1.5-5.2-3.6-5.2c-2.1,0-3.6,1.7-3.6,5.2c0,3.4,1.5,5.2,3.6,5.2C289.5,479.9,290.9,478.2,290.9,474.7z"/>
	<path class="st14" d="M298.8,468v13.4H297v-11.8h-3V468L298.8,468z"/>
	<path class="st14" d="M301.8,474.7c0-4.4,2.3-6.9,5.5-6.9c3.2,0,5.5,2.5,5.5,6.9c0,4.4-2.3,6.9-5.5,6.9
		C304.1,481.6,301.8,479.1,301.8,474.7z M310.8,474.7c0-3.4-1.5-5.2-3.6-5.2c-2.1,0-3.6,1.7-3.6,5.2c0,3.4,1.5,5.2,3.6,5.2
		C309.3,479.9,310.8,478.2,310.8,474.7z"/>
	<path class="st14" d="M318.7,468v13.4h-1.9v-11.8h-3V468L318.7,468z"/>
	<path class="st14" d="M44.6,233.7c0-5.5,3-8.7,6.9-8.7c3.9,0,6.9,3.1,6.9,8.7c0,5.5-3,8.6-6.9,8.6S44.6,239.2,44.6,233.7z
		 M56,233.7c0-4.3-1.8-6.5-4.5-6.5c-2.6,0-4.5,2.2-4.5,6.5c0,4.3,1.8,6.5,4.5,6.5C54.1,240.2,56,238,56,233.7L56,233.7z"/>
	<path class="st14" d="M60.7,233.7c0-5.5,3-8.7,6.9-8.7s6.9,3.1,6.9,8.7c0,5.5-3,8.6-6.9,8.6C63.7,242.3,60.7,239.2,60.7,233.7z
		 M72.1,233.7c0-4.3-1.8-6.5-4.5-6.5c-2.7,0-4.5,2.2-4.5,6.5c0,4.3,1.8,6.5,4.5,6.5C70.2,240.2,72.1,238,72.1,233.7z"/>
	<path class="st14" d="M82,225.3v16.9h-2.4v-14.8h-3.8v-2.1H82z"/>
	<path class="st14" d="M85.7,233.7c0-5.5,3-8.7,6.9-8.7c3.9,0,6.9,3.1,6.9,8.7c0,5.5-3,8.6-6.9,8.6S85.7,239.2,85.7,233.7z
		 M97,233.7c0-4.3-1.8-6.5-4.5-6.5c-2.7,0-4.5,2.2-4.5,6.5c0,4.3,1.8,6.5,4.5,6.5C95.2,240.2,97,238,97,233.7z"/>
	<path class="st14" d="M106.9,225.3v16.9h-2.4v-14.8h-3.8v-2.1H106.9z"/>
	<path class="st14" d="M115.9,225.3v16.9h-2.4v-14.8h-3.8v-2.1H115.9z"/>
	<path class="st14" d="M119.6,233.7c0-5.5,3-8.7,6.9-8.7s6.9,3.1,6.9,8.7c0,5.5-3,8.6-6.9,8.6C122.6,242.3,119.6,239.2,119.6,233.7z
		 M130.9,233.7c0-4.3-1.8-6.5-4.5-6.5s-4.5,2.2-4.5,6.5c0,4.3,1.8,6.5,4.5,6.5C129.1,240.2,130.9,238,130.9,233.7L130.9,233.7z"/>
	<path class="st14" d="M135.7,233.7c0-5.5,3-8.7,6.9-8.7s6.9,3.1,6.9,8.7c0,5.5-3,8.6-6.9,8.6C138.7,242.3,135.7,239.2,135.7,233.7z
		 M147.1,233.7c0-4.3-1.8-6.5-4.5-6.5c-2.6,0-4.5,2.2-4.5,6.5c0,4.3,1.8,6.5,4.5,6.5C145.2,240.2,147,238,147.1,233.7L147.1,233.7z"
		/>
	<path class="st14" d="M151.8,233.7c0-5.5,3-8.7,6.9-8.7s6.9,3.1,6.9,8.7c0,5.5-3,8.6-6.9,8.6C154.8,242.3,151.8,239.2,151.8,233.7z
		 M163.1,233.7c0-4.3-1.8-6.5-4.5-6.5s-4.5,2.2-4.5,6.5c0,4.3,1.8,6.5,4.5,6.5C161.3,240.2,163.1,238,163.1,233.7z"/>
	<path class="st14" d="M173.1,225.3v16.9h-2.4v-14.8h-3.8v-2.1H173.1z"/>
	<path class="st14" d="M176.7,233.7c0-5.5,3-8.7,6.9-8.7s6.9,3.1,6.9,8.7c0,5.5-3,8.6-6.9,8.6S176.7,239.2,176.7,233.7z
		 M188.1,233.7c0-4.3-1.8-6.5-4.5-6.5c-2.6,0-4.5,2.2-4.5,6.5c0,4.3,1.8,6.5,4.5,6.5C186.3,240.2,188.1,238,188.1,233.7z"/>
	<path class="st14" d="M198,225.3v16.9h-2.4v-14.8h-3.8v-2.1H198z"/>
	<path class="st14" d="M310.9,253.6c0-5.5,3-8.7,6.9-8.7c3.9,0,6.9,3.1,6.9,8.7c0,5.5-3,8.6-6.9,8.6
		C313.9,262.2,310.9,259.1,310.9,253.6z M322.3,253.6c0-4.3-1.8-6.5-4.5-6.5c-2.6,0-4.5,2.2-4.5,6.5c0,4.3,1.8,6.5,4.5,6.5
		C320.4,260.1,322.3,257.9,322.3,253.6z"/>
	<path class="st14" d="M332.2,245.1V262h-2.4v-14.8H326v-2.1H332.2z"/>
	<path class="st14" d="M341.1,245.1V262h-2.4v-14.8h-3.8v-2.1H341.1z"/>
	<path class="st14" d="M344.8,253.6c0-5.5,3-8.7,6.9-8.7s6.9,3.1,6.9,8.7c0,5.5-3,8.6-6.9,8.6C347.8,262.2,344.8,259.1,344.8,253.6z
		 M356.1,253.6c0-4.3-1.8-6.5-4.5-6.5c-2.6,0-4.5,2.2-4.5,6.5c0,4.3,1.8,6.5,4.5,6.5C354.3,260.1,356.1,257.9,356.1,253.6z"/>
	<path class="st14" d="M360.9,253.6c0-5.5,3-8.7,6.9-8.7c3.9,0,6.9,3.1,6.9,8.7c0,5.5-3,8.6-6.9,8.6
		C363.9,262.2,360.9,259.1,360.9,253.6z M372.3,253.6c0-4.3-1.8-6.5-4.5-6.5c-2.6,0-4.5,2.2-4.5,6.5c0,4.3,1.8,6.5,4.5,6.5
		C370.4,260.1,372.3,257.9,372.3,253.6z"/>
	<path class="st14" d="M377,253.6c0-5.5,3-8.7,6.9-8.7c3.9,0,6.9,3.1,6.9,8.7c0,5.5-3,8.6-6.9,8.6C380,262.2,377,259.1,377,253.6z
		 M388.4,253.6c0-4.3-1.8-6.5-4.5-6.5c-2.6,0-4.5,2.2-4.5,6.5c0,4.3,1.8,6.5,4.5,6.5C386.5,260.1,388.4,257.9,388.4,253.6z"/>
	<path class="st14" d="M435.6,50.7c0,0.8-0.2,1.6-0.7,2.2c-0.4,0.7-1.1,1.2-1.8,1.5c-0.7,0.3-1.5,0.4-2.3,0.2
		c-0.8-0.2-1.5-0.5-2.1-1.1c-0.6-0.6-0.9-1.3-1.1-2.1c-0.2-0.8-0.1-1.6,0.2-2.3c0.3-0.7,0.8-1.4,1.5-1.8c0.7-0.4,1.4-0.7,2.2-0.7
		c1.1,0,2.1,0.4,2.9,1.2C435.2,48.6,435.6,49.7,435.6,50.7L435.6,50.7z"/>
	<path class="st14" d="M453,50.7c0,0.8-0.2,1.6-0.7,2.3c-0.4,0.7-1.1,1.2-1.8,1.5c-0.7,0.3-1.6,0.4-2.3,0.2
		c-0.8-0.2-1.5-0.5-2.1-1.1c-0.6-0.6-1-1.3-1.1-2.1c-0.2-0.8-0.1-1.6,0.2-2.3c0.3-0.7,0.8-1.4,1.5-1.8c0.7-0.4,1.5-0.7,2.3-0.7
		c1.1,0,2.1,0.4,2.9,1.2C452.6,48.6,453,49.7,453,50.7L453,50.7z"/>
	<path class="st14" d="M472.1,50.7c0,1.1-0.3,2.2-1,3.2c-0.6,0.9-1.5,1.7-2.6,2.1c-1,0.4-2.2,0.5-3.3,0.3s-2.1-0.8-2.9-1.6
		c-0.8-0.8-1.3-1.8-1.6-2.9c-0.2-1.1-0.1-2.3,0.3-3.3c0.4-1,1.2-1.9,2.1-2.6c0.9-0.6,2-1,3.2-1c1.5,0,3,0.6,4,1.7
		C471.5,47.8,472.1,49.2,472.1,50.7z"/>
	<path class="st14" d="M487.9,50.7c0,0.8-0.2,1.6-0.7,2.3c-0.4,0.7-1.1,1.2-1.8,1.5c-0.7,0.3-1.6,0.4-2.3,0.2
		c-0.8-0.2-1.5-0.5-2.1-1.1c-0.6-0.6-1-1.3-1.1-2.1s-0.1-1.6,0.2-2.3c0.3-0.7,0.8-1.4,1.5-1.8c0.7-0.4,1.5-0.7,2.3-0.7
		c1.1,0,2.1,0.4,2.9,1.2C487.5,48.6,487.9,49.7,487.9,50.7L487.9,50.7z"/>
	<path class="st14" d="M195.2,413.6c0-0.8,0.2-1.6,0.7-2.3c0.4-0.7,1.1-1.2,1.8-1.5c0.7-0.3,1.6-0.4,2.3-0.2
		c0.8,0.2,1.5,0.5,2.1,1.1c0.6,0.6,1,1.3,1.1,2.1c0.2,0.8,0.1,1.6-0.2,2.3c-0.3,0.7-0.8,1.4-1.5,1.8c-0.7,0.4-1.4,0.7-2.3,0.7
		c-0.5,0-1.1-0.1-1.5-0.3c-0.5-0.2-0.9-0.5-1.3-0.9c-0.4-0.4-0.7-0.8-0.9-1.3C195.3,414.6,195.2,414.1,195.2,413.6L195.2,413.6z"/>
	<path class="st14" d="M177.7,413.6c0-0.8,0.2-1.6,0.7-2.2c0.4-0.7,1.1-1.2,1.8-1.5c0.7-0.3,1.5-0.4,2.3-0.2
		c0.8,0.2,1.5,0.5,2.1,1.1c0.6,0.6,0.9,1.3,1.1,2.1c0.2,0.8,0.1,1.6-0.2,2.3c-0.3,0.7-0.8,1.4-1.5,1.8c-0.7,0.4-1.4,0.7-2.2,0.7
		c-1.1,0-2.1-0.4-2.9-1.2C178.1,415.7,177.7,414.7,177.7,413.6z"/>
	<path class="st14" d="M158.6,413.6c0-1.1,0.3-2.2,1-3.2c0.6-0.9,1.5-1.7,2.6-2.1c1-0.4,2.2-0.5,3.3-0.3c1.1,0.2,2.1,0.8,2.9,1.6
		c0.8,0.8,1.3,1.8,1.6,2.9c0.2,1.1,0.1,2.3-0.3,3.3c-0.4,1-1.2,1.9-2.1,2.6c-0.9,0.6-2,1-3.2,1c-1.5,0-3-0.6-4-1.7
		C159.2,416.6,158.6,415.1,158.6,413.6L158.6,413.6z"/>
	<path class="st14" d="M142.9,413.6c0-0.8,0.2-1.6,0.7-2.3c0.4-0.7,1.1-1.2,1.8-1.5c0.7-0.3,1.6-0.4,2.3-0.2s1.5,0.5,2.1,1.1
		c0.6,0.6,1,1.3,1.1,2.1c0.2,0.8,0.1,1.6-0.2,2.3c-0.3,0.7-0.8,1.4-1.5,1.8c-0.7,0.4-1.5,0.7-2.3,0.7c-1.1,0-2.1-0.4-2.9-1.2
		C143.3,415.7,142.9,414.7,142.9,413.6z"/>
	<path class="st15" d="M403.7,265.7h-6.9v4h6.9V265.7z"/>
	<path class="st15" d="M403.7,258.1h-6.9v4.1h6.9V258.1z"/>
	<path class="st15" d="M403.7,250.4h-6.9v4.1h6.9V250.4z"/>
	<path class="st15" d="M403.7,242.8h-6.9v4.1h6.9V242.8z"/>
	<path class="st15" d="M403.7,235.2h-6.9v4.1h6.9V235.2z"/>
	<path class="st15" d="M403.7,227.6h-6.9v4.1h6.9V227.6z"/>
	<path class="st15" d="M403.7,220h-6.9v4.1h6.9V220z"/>
	<path class="st15" d="M403.7,212.4h-6.9v4h6.9V212.4z"/>
	<path class="st15" d="M403.7,204.8h-6.9v4h6.9V204.8z"/>
	<path class="st15" d="M403.7,197.2h-6.9v4h6.9V197.2z"/>
	<path class="st15" d="M307.8,265.7h-6.9v4h6.9V265.7z"/>
	<path class="st15" d="M307.8,258.1h-6.9v4.1h6.9V258.1z"/>
	<path class="st15" d="M307.8,250.4h-6.9v4.1h6.9V250.4z"/>
	<path class="st15" d="M307.8,242.8h-6.9v4.1h6.9V242.8z"/>
	<path class="st15" d="M307.8,235.2h-6.9v4.1h6.9V235.2z"/>
	<path class="st15" d="M307.8,227.6h-6.9v4.1h6.9V227.6z"/>
	<path class="st15" d="M307.8,220h-6.9v4.1h6.9V220z"/>
	<path class="st15" d="M307.8,212.4h-6.9v4h6.9V212.4z"/>
	<path class="st15" d="M307.8,204.8h-6.9v4h6.9V204.8z"/>
	<path class="st15" d="M307.8,197.2h-6.9v4h6.9V197.2z"/>
	<path class="st15" d="M211.8,265.7h-6.9v4h6.9V265.7z"/>
	<path class="st15" d="M211.8,258.1h-6.9v4.1h6.9V258.1z"/>
	<path class="st15" d="M211.8,250.4h-6.9v4.1h6.9V250.4z"/>
	<path class="st15" d="M211.8,242.8h-6.9v4.1h6.9V242.8z"/>
	<path class="st15" d="M211.8,235.2h-6.9v4.1h6.9V235.2z"/>
	<path class="st15" d="M211.8,227.6h-6.9v4.1h6.9V227.6z"/>
	<path class="st15" d="M211.8,220h-6.9v4.1h6.9V220z"/>
	<path class="st15" d="M211.8,212.4h-6.9v4h6.9V212.4z"/>
	<path class="st15" d="M211.8,204.8h-6.9v4h6.9V204.8z"/>
	<path class="st15" d="M211.8,197.2h-6.9v4h6.9V197.2z"/>
</g>
</svg>
